<svg xmlns="http://www.w3.org/2000/svg" width="760" height="420" viewBox="0 0 760 420">
  <rect width="100%" height="100%" fill="#ffffff" />
  <text x="20" y="26" font-size="20" font-family="Segoe UI" font-weight="600">Training Curves</text>
  <line x1="60" y1="40" x2="60" y2="370" stroke="#666" />
  <line x1="60" y1="370" x2="730" y2="370" stroke="#666" />
  <polyline fill="none" stroke="#1f6feb" stroke-width="3" points="60.0,40.0 95.3,182.7 130.5,206.3 165.8,223.4 201.1,236.6 236.3,246.9 271.6,255.3 306.8,262.3 342.1,268.2 377.4,273.2 412.6,277.3 447.9,280.9 483.2,284.3 518.4,287.2 553.7,289.4 588.9,291.6 624.2,293.4 659.5,295.1 694.7,296.5 730.0,298.0" />
  <polyline fill="none" stroke="#d73a49" stroke-width="3" points="60.0,284.9 95.3,306.1 130.5,319.1 165.8,329.0 201.1,335.8 236.3,341.0 271.6,345.6 306.8,349.5 342.1,352.3 377.4,355.1 412.6,357.3 447.9,359.1 483.2,361.3 518.4,362.9 553.7,364.2 588.9,365.7 624.2,367.0 659.5,368.1 694.7,369.2 730.0,370.0" />
  <text x="550" y="36" font-size="13" font-family="Segoe UI" fill="#1f6feb">Train Loss</text>
  <text x="640" y="36" font-size="13" font-family="Segoe UI" fill="#d73a49">Val BCE</text>
</svg>
