<svg xmlns="http://www.w3.org/2000/svg" width="760" height="420" viewBox="0 0 760 420">
  <rect width="100%" height="100%" fill="#ffffff" />
  <text x="16" y="24" font-size="20" font-family="Segoe UI" font-weight="600">Ablation Comparison</text>
  <text x="16" y="42" font-size="13" font-family="Segoe UI" fill="#666">Metric: auc</text>
  <text x="16" y="70" font-size="14" font-family="Segoe UI">ednet20k_thgkt_full</text><rect x="160" y="50" width="558.4" height="30" fill="#1f6feb" rx="4" /><text x="726.4" y="70" font-size="13" font-family="Segoe UI">0.7613</text><text x="16" y="116" font-size="14" font-family="Segoe UI">ednet20k_dkt_baseline</text><rect x="160" y="96" width="471.1" height="30" fill="#1f6feb" rx="4" /><text x="639.1" y="116" font-size="13" font-family="Segoe UI">0.6423</text><text x="16" y="162" font-size="14" font-family="Segoe UI">ednet20k_graph_only</text><rect x="160" y="142" width="429.7" height="30" fill="#1f6feb" rx="4" /><text x="597.7" y="162" font-size="13" font-family="Segoe UI">0.5858</text><text x="16" y="208" font-size="14" font-family="Segoe UI">ednet20k_thgkt_no_prereq</text><rect x="160" y="188" width="560.0" height="30" fill="#1f6feb" rx="4" /><text x="728.0" y="208" font-size="13" font-family="Segoe UI">0.7635</text><text x="16" y="254" font-size="14" font-family="Segoe UI">ednet20k_thgkt_no_temporal</text><rect x="160" y="234" width="552.9" height="30" fill="#1f6feb" rx="4" /><text x="720.9" y="254" font-size="13" font-family="Segoe UI">0.7539</text><text x="16" y="300" font-size="14" font-family="Segoe UI">ednet20k_thgkt_cooccurrence_graph</text><rect x="160" y="280" width="558.8" height="30" fill="#1f6feb" rx="4" /><text x="726.8" y="300" font-size="13" font-family="Segoe UI">0.7619</text>
</svg>
