<svg xmlns="http://www.w3.org/2000/svg" width="760" height="420" viewBox="0 0 760 420">
  <rect width="100%" height="100%" fill="#ffffff" />
  <text x="16" y="24" font-size="20" font-family="Segoe UI" font-weight="600">Comparison by F1</text>
  <text x="16" y="42" font-size="13" font-family="Segoe UI" fill="#666">Metric: f1</text>
  <text x="16" y="70" font-size="14" font-family="Segoe UI">ednet20k_thgkt_no_prereq</text><rect x="160" y="50" width="560.0" height="30" fill="#1f6feb" rx="4" /><text x="728.0" y="70" font-size="13" font-family="Segoe UI">0.8174</text><text x="16" y="116" font-size="14" font-family="Segoe UI">ednet20k_thgkt_cooccurrence_graph</text><rect x="160" y="96" width="559.7" height="30" fill="#1f6feb" rx="4" /><text x="727.7" y="116" font-size="13" font-family="Segoe UI">0.8169</text><text x="16" y="162" font-size="14" font-family="Segoe UI">ednet20k_thgkt_full</text><rect x="160" y="142" width="559.0" height="30" fill="#1f6feb" rx="4" /><text x="727.0" y="162" font-size="13" font-family="Segoe UI">0.8160</text><text x="16" y="208" font-size="14" font-family="Segoe UI">ednet20k_thgkt_no_temporal</text><rect x="160" y="188" width="555.0" height="30" fill="#1f6feb" rx="4" /><text x="723.0" y="208" font-size="13" font-family="Segoe UI">0.8101</text><text x="16" y="254" font-size="14" font-family="Segoe UI">ednet20k_dkt_baseline</text><rect x="160" y="234" width="551.7" height="30" fill="#1f6feb" rx="4" /><text x="719.7" y="254" font-size="13" font-family="Segoe UI">0.8054</text><text x="16" y="300" font-size="14" font-family="Segoe UI">ednet20k_graph_only</text><rect x="160" y="280" width="549.2" height="30" fill="#1f6feb" rx="4" /><text x="717.2" y="300" font-size="13" font-family="Segoe UI">0.8017</text>
</svg>
