<svg xmlns="http://www.w3.org/2000/svg" width="760" height="420" viewBox="0 0 760 420">
  <rect width="100%" height="100%" fill="#ffffff" />
  <text x="20" y="26" font-size="20" font-family="Segoe UI" font-weight="600">Training Curves</text>
  <line x1="60" y1="40" x2="60" y2="370" stroke="#666" />
  <line x1="60" y1="370" x2="730" y2="370" stroke="#666" />
  <polyline fill="none" stroke="#1f6feb" stroke-width="3" points="60.0,40.0 95.3,221.2 130.5,258.2 165.8,262.7 201.1,265.6 236.3,267.5 271.6,269.2 306.8,270.5 342.1,271.7 377.4,273.5 412.6,275.3 447.9,276.7 483.2,278.1 518.4,278.8 553.7,279.6 588.9,280.3 624.2,280.9 659.5,281.7 694.7,282.3 730.0,282.7" />
  <polyline fill="none" stroke="#d73a49" stroke-width="3" points="60.0,222.6 95.3,337.2 130.5,342.1 165.8,347.6 201.1,330.7 236.3,353.0 271.6,351.7 306.8,334.0 342.1,339.5 377.4,360.0 412.6,364.7 447.9,363.5 483.2,362.7 518.4,366.5 553.7,349.3 588.9,358.9 624.2,362.2 659.5,340.5 694.7,370.0 730.0,365.0" />
  <text x="550" y="36" font-size="13" font-family="Segoe UI" fill="#1f6feb">Train Loss</text>
  <text x="640" y="36" font-size="13" font-family="Segoe UI" fill="#d73a49">Val BCE</text>
</svg>
