<svg xmlns="http://www.w3.org/2000/svg" width="760" height="420" viewBox="0 0 760 420">
  <rect width="100%" height="100%" fill="#ffffff" />
  <text x="20" y="26" font-size="20" font-family="Segoe UI" font-weight="600">Training Curves</text>
  <line x1="60" y1="40" x2="60" y2="370" stroke="#666" />
  <line x1="60" y1="370" x2="730" y2="370" stroke="#666" />
  <polyline fill="none" stroke="#1f6feb" stroke-width="3" points="60.0,40.0 95.3,170.6 130.5,189.8 165.8,204.8 201.1,216.7 236.3,226.6 271.6,234.8 306.8,241.8 342.1,247.8 377.4,252.8 412.6,257.2 447.9,261.3 483.2,264.8 518.4,267.6 553.7,270.3 588.9,272.5 624.2,274.7 659.5,276.5 694.7,278.4 730.0,279.6" />
  <polyline fill="none" stroke="#d73a49" stroke-width="3" points="60.0,294.5 95.3,311.0 130.5,321.7 165.8,329.1 201.1,334.7 236.3,339.8 271.6,344.2 306.8,347.4 342.1,350.7 377.4,353.1 412.6,355.1 447.9,357.9 483.2,359.9 518.4,361.3 553.7,363.1 588.9,364.8 624.2,366.2 659.5,367.5 694.7,368.5 730.0,370.0" />
  <text x="550" y="36" font-size="13" font-family="Segoe UI" fill="#1f6feb">Train Loss</text>
  <text x="640" y="36" font-size="13" font-family="Segoe UI" fill="#d73a49">Val BCE</text>
</svg>
