<svg xmlns="http://www.w3.org/2000/svg" width="760" height="420" viewBox="0 0 760 420">
  <rect width="100%" height="100%" fill="#ffffff" />
  <text x="20" y="26" font-size="20" font-family="Segoe UI" font-weight="600">Training Curves</text>
  <line x1="60" y1="40" x2="60" y2="370" stroke="#666" />
  <line x1="60" y1="370" x2="730" y2="370" stroke="#666" />
  <polyline fill="none" stroke="#1f6feb" stroke-width="3" points="60.0,40.0 120.9,146.9 181.8,210.3 242.7,251.6 303.6,278.2 364.5,300.5 425.5,318.5 486.4,333.2 547.3,343.2 608.2,351.6 669.1,360.0 730.0,370.0" />
  <polyline fill="none" stroke="#d73a49" stroke-width="3" points="60.0,89.4 120.9,144.5 181.8,152.7 242.7,160.7 303.6,128.5 364.5,163.5 425.5,154.7 486.4,135.6 547.3,142.1 608.2,82.9 669.1,102.4 730.0,122.2" />
  <text x="550" y="36" font-size="13" font-family="Segoe UI" fill="#1f6feb">Train Loss</text>
  <text x="640" y="36" font-size="13" font-family="Segoe UI" fill="#d73a49">Val BCE</text>
</svg>
