<svg xmlns="http://www.w3.org/2000/svg" width="760" height="420" viewBox="0 0 760 420">
  <rect width="100%" height="100%" fill="#ffffff" />
  <text x="20" y="26" font-size="20" font-family="Segoe UI" font-weight="600">Training Curves</text>
  <line x1="60" y1="40" x2="60" y2="370" stroke="#666" />
  <line x1="60" y1="370" x2="730" y2="370" stroke="#666" />
  <polyline fill="none" stroke="#1f6feb" stroke-width="3" points="60.0,40.0 127.0,151.0 194.0,216.0 261.0,257.7 328.0,287.6 395.0,308.3 462.0,325.5 529.0,338.9 596.0,351.6 663.0,361.6 730.0,370.0" />
  <polyline fill="none" stroke="#d73a49" stroke-width="3" points="60.0,105.1 127.0,134.9 194.0,140.9 261.0,155.2 328.0,159.1 395.0,168.6 462.0,170.7 529.0,173.5 596.0,141.3 663.0,136.5 730.0,137.4" />
  <text x="550" y="36" font-size="13" font-family="Segoe UI" fill="#1f6feb">Train Loss</text>
  <text x="640" y="36" font-size="13" font-family="Segoe UI" fill="#d73a49">Val BCE</text>
</svg>
