<svg xmlns="http://www.w3.org/2000/svg" width="760" height="420" viewBox="0 0 760 420">
  <rect width="100%" height="100%" fill="#ffffff" />
  <text x="20" y="26" font-size="20" font-family="Segoe UI" font-weight="600">Training Curves</text>
  <line x1="60" y1="40" x2="60" y2="370" stroke="#666" />
  <line x1="60" y1="370" x2="730" y2="370" stroke="#666" />
  <polyline fill="none" stroke="#1f6feb" stroke-width="3" points="60.0,40.0 115.8,144.8 171.7,207.7 227.5,248.5 283.3,275.4 339.2,296.7 395.0,311.7 450.8,325.7 506.7,335.0 562.5,345.0 618.3,355.7 674.2,361.7 730.0,370.0" />
  <polyline fill="none" stroke="#d73a49" stroke-width="3" points="60.0,101.0 115.8,125.7 171.7,155.0 227.5,148.5 283.3,151.7 339.2,138.9 395.0,157.3 450.8,137.3 506.7,152.5 562.5,132.3 618.3,123.6 674.2,102.4 730.0,104.3" />
  <text x="550" y="36" font-size="13" font-family="Segoe UI" fill="#1f6feb">Train Loss</text>
  <text x="640" y="36" font-size="13" font-family="Segoe UI" fill="#d73a49">Val BCE</text>
</svg>
