<svg xmlns="http://www.w3.org/2000/svg" width="760" height="420" viewBox="0 0 760 420">
  <rect width="100%" height="100%" fill="#ffffff" />
  <text x="20" y="26" font-size="20" font-family="Segoe UI" font-weight="600">Training Curves</text>
  <line x1="60" y1="40" x2="60" y2="370" stroke="#666" />
  <line x1="60" y1="370" x2="730" y2="370" stroke="#666" />
  <polyline fill="none" stroke="#1f6feb" stroke-width="3" points="60.0,40.0 95.3,218.2 130.5,230.3 165.8,231.5 201.1,231.7 236.3,231.8 271.6,231.9 306.8,232.0 342.1,232.0 377.4,232.2 412.6,232.3 447.9,232.4 483.2,232.5 518.4,232.5 553.7,232.6 588.9,232.7 624.2,232.8 659.5,232.8 694.7,233.0 730.0,233.0" />
  <polyline fill="none" stroke="#d73a49" stroke-width="3" points="60.0,326.1 95.3,360.8 130.5,367.7 165.8,369.2 201.1,369.6 236.3,369.3 271.6,369.4 306.8,369.5 342.1,369.5 377.4,369.3 412.6,369.9 447.9,369.5 483.2,369.5 518.4,369.8 553.7,369.7 588.9,369.8 624.2,369.9 659.5,369.9 694.7,369.9 730.0,370.0" />
  <text x="550" y="36" font-size="13" font-family="Segoe UI" fill="#1f6feb">Train Loss</text>
  <text x="640" y="36" font-size="13" font-family="Segoe UI" fill="#d73a49">Val BCE</text>
</svg>
