<svg xmlns="http://www.w3.org/2000/svg" width="760" height="420" viewBox="0 0 760 420">
  <rect width="100%" height="100%" fill="#ffffff" />
  <text x="20" y="26" font-size="20" font-family="Segoe UI" font-weight="600">Training Curves</text>
  <line x1="60" y1="40" x2="60" y2="370" stroke="#666" />
  <line x1="60" y1="370" x2="730" y2="370" stroke="#666" />
  <polyline fill="none" stroke="#1f6feb" stroke-width="3" points="60.0,40.0 127.0,153.0 194.0,215.9 261.0,258.0 328.0,288.9 395.0,308.1 462.0,326.6 529.0,340.4 596.0,350.2 663.0,361.3 730.0,370.0" />
  <polyline fill="none" stroke="#d73a49" stroke-width="3" points="60.0,92.0 127.0,149.4 194.0,150.2 261.0,153.3 328.0,149.9 395.0,154.0 462.0,161.9 529.0,156.5 596.0,147.6 663.0,110.9 730.0,114.4" />
  <text x="550" y="36" font-size="13" font-family="Segoe UI" fill="#1f6feb">Train Loss</text>
  <text x="640" y="36" font-size="13" font-family="Segoe UI" fill="#d73a49">Val BCE</text>
</svg>
