<svg xmlns="http://www.w3.org/2000/svg" width="760" height="420" viewBox="0 0 760 420">
  <rect width="100%" height="100%" fill="#ffffff" />
  <text x="20" y="26" font-size="20" font-family="Segoe UI" font-weight="600">Training Curves</text>
  <line x1="60" y1="40" x2="60" y2="370" stroke="#666" />
  <line x1="60" y1="370" x2="730" y2="370" stroke="#666" />
  <polyline fill="none" stroke="#1f6feb" stroke-width="3" points="60.0,40.0 95.3,169.8 130.5,191.1 165.8,207.0 201.1,219.8 236.3,230.1 271.6,238.9 306.8,246.2 342.1,252.5 377.4,257.8 412.6,262.5 447.9,266.5 483.2,270.0 518.4,273.2 553.7,276.0 588.9,278.5 624.2,280.5 659.5,282.4 694.7,284.4 730.0,286.0" />
  <polyline fill="none" stroke="#d73a49" stroke-width="3" points="60.0,291.9 95.3,309.4 130.5,320.5 165.8,328.8 201.1,335.2 236.3,339.8 271.6,344.1 306.8,347.7 342.1,350.9 377.4,354.0 412.6,356.4 447.9,358.4 483.2,360.5 518.4,362.2 553.7,363.8 588.9,365.2 624.2,366.5 659.5,367.7 694.7,368.9 730.0,370.0" />
  <text x="550" y="36" font-size="13" font-family="Segoe UI" fill="#1f6feb">Train Loss</text>
  <text x="640" y="36" font-size="13" font-family="Segoe UI" fill="#d73a49">Val BCE</text>
</svg>
