<svg xmlns="http://www.w3.org/2000/svg" width="760" height="420" viewBox="0 0 760 420">
  <rect width="100%" height="100%" fill="#ffffff" />
  <text x="20" y="26" font-size="20" font-family="Segoe UI" font-weight="600">Training Curves</text>
  <line x1="60" y1="40" x2="60" y2="370" stroke="#666" />
  <line x1="60" y1="370" x2="730" y2="370" stroke="#666" />
  <polyline fill="none" stroke="#1f6feb" stroke-width="3" points="60.0,40.0 115.8,143.5 171.7,207.2 227.5,249.0 283.3,278.7 339.2,299.3 395.0,314.0 450.8,326.6 506.7,335.5 562.5,345.5 618.3,355.1 674.2,363.2 730.0,370.0" />
  <polyline fill="none" stroke="#d73a49" stroke-width="3" points="60.0,89.8 115.8,133.4 171.7,139.0 227.5,156.4 283.3,150.3 339.2,147.0 395.0,121.6 450.8,110.9 506.7,134.6 562.5,123.7 618.3,131.3 674.2,90.1 730.0,108.3" />
  <text x="550" y="36" font-size="13" font-family="Segoe UI" fill="#1f6feb">Train Loss</text>
  <text x="640" y="36" font-size="13" font-family="Segoe UI" fill="#d73a49">Val BCE</text>
</svg>
