<svg xmlns="http://www.w3.org/2000/svg" width="760" height="420" viewBox="0 0 760 420">
  <rect width="100%" height="100%" fill="#ffffff" />
  <text x="16" y="24" font-size="20" font-family="Segoe UI" font-weight="600">Comparison by BCE Loss (lower is better)</text>
  <text x="16" y="42" font-size="13" font-family="Segoe UI" fill="#666">Metric: bce_loss</text>
  <text x="16" y="70" font-size="14" font-family="Segoe UI">ednet1k_thgkt_cooccurrence_graph_seed05</text><rect x="160" y="50" width="512.6" height="30" fill="#1f6feb" rx="4" /><text x="680.6" y="70" font-size="13" font-family="Segoe UI">0.5571</text><text x="16" y="116" font-size="14" font-family="Segoe UI">ednet1k_thgkt_no_prereq_seed08</text><rect x="160" y="96" width="516.7" height="30" fill="#1f6feb" rx="4" /><text x="684.7" y="116" font-size="13" font-family="Segoe UI">0.5615</text><text x="16" y="162" font-size="14" font-family="Segoe UI">ednet1k_thgkt_no_prereq_seed05</text><rect x="160" y="142" width="513.4" height="30" fill="#1f6feb" rx="4" /><text x="681.4" y="162" font-size="13" font-family="Segoe UI">0.5579</text><text x="16" y="208" font-size="14" font-family="Segoe UI">ednet1k_thgkt_full_seed01</text><rect x="160" y="188" width="512.5" height="30" fill="#1f6feb" rx="4" /><text x="680.5" y="208" font-size="13" font-family="Segoe UI">0.5569</text><text x="16" y="254" font-size="14" font-family="Segoe UI">ednet1k_thgkt_cooccurrence_graph_seed06</text><rect x="160" y="234" width="511.2" height="30" fill="#1f6feb" rx="4" /><text x="679.2" y="254" font-size="13" font-family="Segoe UI">0.5555</text><text x="16" y="300" font-size="14" font-family="Segoe UI">ednet1k_thgkt_full_seed10</text><rect x="160" y="280" width="515.6" height="30" fill="#1f6feb" rx="4" /><text x="683.6" y="300" font-size="13" font-family="Segoe UI">0.5603</text><text x="16" y="346" font-size="14" font-family="Segoe UI">ednet1k_thgkt_no_prereq_seed07</text><rect x="160" y="326" width="523.1" height="30" fill="#1f6feb" rx="4" /><text x="691.1" y="346" font-size="13" font-family="Segoe UI">0.5685</text><text x="16" y="392" font-size="14" font-family="Segoe UI">ednet1k_thgkt_cooccurrence_graph_seed01</text><rect x="160" y="372" width="512.7" height="30" fill="#1f6feb" rx="4" /><text x="680.7" y="392" font-size="13" font-family="Segoe UI">0.5572</text><text x="16" y="438" font-size="14" font-family="Segoe UI">ednet1k_thgkt_cooccurrence_graph_seed04</text><rect x="160" y="418" width="515.4" height="30" fill="#1f6feb" rx="4" /><text x="683.4" y="438" font-size="13" font-family="Segoe UI">0.5601</text><text x="16" y="484" font-size="14" font-family="Segoe UI">ednet1k_thgkt_cooccurrence_graph_seed02</text><rect x="160" y="464" width="512.9" height="30" fill="#1f6feb" rx="4" /><text x="680.9" y="484" font-size="13" font-family="Segoe UI">0.5575</text><text x="16" y="530" font-size="14" font-family="Segoe UI">ednet1k_thgkt_cooccurrence_graph_seed10</text><rect x="160" y="510" width="516.5" height="30" fill="#1f6feb" rx="4" /><text x="684.5" y="530" font-size="13" font-family="Segoe UI">0.5613</text><text x="16" y="576" font-size="14" font-family="Segoe UI">ednet1k_thgkt_full_seed06</text><rect x="160" y="556" width="512.5" height="30" fill="#1f6feb" rx="4" /><text x="680.5" y="576" font-size="13" font-family="Segoe UI">0.5570</text><text x="16" y="622" font-size="14" font-family="Segoe UI">ednet1k_thgkt_no_prereq_seed09</text><rect x="160" y="602" width="520.4" height="30" fill="#1f6feb" rx="4" /><text x="688.4" y="622" font-size="13" font-family="Segoe UI">0.5656</text><text x="16" y="668" font-size="14" font-family="Segoe UI">ednet1k_thgkt_cooccurrence_graph_seed09</text><rect x="160" y="648" width="520.8" height="30" fill="#1f6feb" rx="4" /><text x="688.8" y="668" font-size="13" font-family="Segoe UI">0.5660</text><text x="16" y="714" font-size="14" font-family="Segoe UI">ednet1k_thgkt_no_prereq_seed02</text><rect x="160" y="694" width="514.8" height="30" fill="#1f6feb" rx="4" /><text x="682.8" y="714" font-size="13" font-family="Segoe UI">0.5595</text><text x="16" y="760" font-size="14" font-family="Segoe UI">ednet1k_dkt_baseline_seed04</text><rect x="160" y="740" width="512.3" height="30" fill="#1f6feb" rx="4" /><text x="680.3" y="760" font-size="13" font-family="Segoe UI">0.5567</text><text x="16" y="806" font-size="14" font-family="Segoe UI">ednet1k_thgkt_full_seed08</text><rect x="160" y="786" width="518.4" height="30" fill="#1f6feb" rx="4" /><text x="686.4" y="806" font-size="13" font-family="Segoe UI">0.5634</text><text x="16" y="852" font-size="14" font-family="Segoe UI">ednet1k_thgkt_no_prereq_seed03</text><rect x="160" y="832" width="521.0" height="30" fill="#1f6feb" rx="4" /><text x="689.0" y="852" font-size="13" font-family="Segoe UI">0.5662</text><text x="16" y="898" font-size="14" font-family="Segoe UI">ednet1k_thgkt_no_prereq_seed04</text><rect x="160" y="878" width="516.5" height="30" fill="#1f6feb" rx="4" /><text x="684.5" y="898" font-size="13" font-family="Segoe UI">0.5613</text><text x="16" y="944" font-size="14" font-family="Segoe UI">ednet1k_thgkt_no_temporal_seed09</text><rect x="160" y="924" width="517.1" height="30" fill="#1f6feb" rx="4" /><text x="685.1" y="944" font-size="13" font-family="Segoe UI">0.5620</text><text x="16" y="990" font-size="14" font-family="Segoe UI">ednet1k_thgkt_no_prereq_seed01</text><rect x="160" y="970" width="515.9" height="30" fill="#1f6feb" rx="4" /><text x="683.9" y="990" font-size="13" font-family="Segoe UI">0.5607</text><text x="16" y="1036" font-size="14" font-family="Segoe UI">ednet1k_thgkt_cooccurrence_graph_seed08</text><rect x="160" y="1016" width="524.1" height="30" fill="#1f6feb" rx="4" /><text x="692.1" y="1036" font-size="13" font-family="Segoe UI">0.5695</text><text x="16" y="1082" font-size="14" font-family="Segoe UI">ednet1k_dkt_baseline_seed05</text><rect x="160" y="1062" width="512.1" height="30" fill="#1f6feb" rx="4" /><text x="680.1" y="1082" font-size="13" font-family="Segoe UI">0.5565</text><text x="16" y="1128" font-size="14" font-family="Segoe UI">ednet1k_dkt_baseline_seed02</text><rect x="160" y="1108" width="512.4" height="30" fill="#1f6feb" rx="4" /><text x="680.4" y="1128" font-size="13" font-family="Segoe UI">0.5569</text><text x="16" y="1174" font-size="14" font-family="Segoe UI">ednet1k_thgkt_no_prereq_seed10</text><rect x="160" y="1154" width="516.2" height="30" fill="#1f6feb" rx="4" /><text x="684.2" y="1174" font-size="13" font-family="Segoe UI">0.5610</text><text x="16" y="1220" font-size="14" font-family="Segoe UI">ednet1k_dkt_baseline_seed07</text><rect x="160" y="1200" width="512.0" height="30" fill="#1f6feb" rx="4" /><text x="680.0" y="1220" font-size="13" font-family="Segoe UI">0.5565</text><text x="16" y="1266" font-size="14" font-family="Segoe UI">ednet1k_thgkt_full_seed04</text><rect x="160" y="1246" width="517.9" height="30" fill="#1f6feb" rx="4" /><text x="685.9" y="1266" font-size="13" font-family="Segoe UI">0.5628</text><text x="16" y="1312" font-size="14" font-family="Segoe UI">ednet1k_thgkt_cooccurrence_graph_seed03</text><rect x="160" y="1292" width="517.3" height="30" fill="#1f6feb" rx="4" /><text x="685.3" y="1312" font-size="13" font-family="Segoe UI">0.5622</text><text x="16" y="1358" font-size="14" font-family="Segoe UI">ednet1k_thgkt_no_prereq_seed06</text><rect x="160" y="1338" width="513.9" height="30" fill="#1f6feb" rx="4" /><text x="681.9" y="1358" font-size="13" font-family="Segoe UI">0.5585</text><text x="16" y="1404" font-size="14" font-family="Segoe UI">ednet1k_dkt_baseline_seed10</text><rect x="160" y="1384" width="513.0" height="30" fill="#1f6feb" rx="4" /><text x="681.0" y="1404" font-size="13" font-family="Segoe UI">0.5575</text><text x="16" y="1450" font-size="14" font-family="Segoe UI">ednet1k_thgkt_no_temporal_seed07</text><rect x="160" y="1430" width="526.7" height="30" fill="#1f6feb" rx="4" /><text x="694.7" y="1450" font-size="13" font-family="Segoe UI">0.5724</text><text x="16" y="1496" font-size="14" font-family="Segoe UI">ednet1k_dkt_baseline_seed09</text><rect x="160" y="1476" width="512.4" height="30" fill="#1f6feb" rx="4" /><text x="680.4" y="1496" font-size="13" font-family="Segoe UI">0.5569</text><text x="16" y="1542" font-size="14" font-family="Segoe UI">ednet1k_thgkt_no_temporal_seed02</text><rect x="160" y="1522" width="532.0" height="30" fill="#1f6feb" rx="4" /><text x="700.0" y="1542" font-size="13" font-family="Segoe UI">0.5781</text><text x="16" y="1588" font-size="14" font-family="Segoe UI">ednet1k_thgkt_full_seed05</text><rect x="160" y="1568" width="516.3" height="30" fill="#1f6feb" rx="4" /><text x="684.3" y="1588" font-size="13" font-family="Segoe UI">0.5611</text><text x="16" y="1634" font-size="14" font-family="Segoe UI">ednet1k_thgkt_full_seed02</text><rect x="160" y="1614" width="517.4" height="30" fill="#1f6feb" rx="4" /><text x="685.4" y="1634" font-size="13" font-family="Segoe UI">0.5623</text><text x="16" y="1680" font-size="14" font-family="Segoe UI">ednet1k_thgkt_full_seed07</text><rect x="160" y="1660" width="522.6" height="30" fill="#1f6feb" rx="4" /><text x="690.6" y="1680" font-size="13" font-family="Segoe UI">0.5680</text><text x="16" y="1726" font-size="14" font-family="Segoe UI">ednet1k_dkt_baseline_seed03</text><rect x="160" y="1706" width="516.3" height="30" fill="#1f6feb" rx="4" /><text x="684.3" y="1726" font-size="13" font-family="Segoe UI">0.5611</text><text x="16" y="1772" font-size="14" font-family="Segoe UI">ednet1k_thgkt_full_seed09</text><rect x="160" y="1752" width="526.6" height="30" fill="#1f6feb" rx="4" /><text x="694.6" y="1772" font-size="13" font-family="Segoe UI">0.5722</text><text x="16" y="1818" font-size="14" font-family="Segoe UI">ednet1k_thgkt_full_seed03</text><rect x="160" y="1798" width="521.5" height="30" fill="#1f6feb" rx="4" /><text x="689.5" y="1818" font-size="13" font-family="Segoe UI">0.5667</text><text x="16" y="1864" font-size="14" font-family="Segoe UI">ednet1k_thgkt_no_temporal_seed08</text><rect x="160" y="1844" width="520.2" height="30" fill="#1f6feb" rx="4" /><text x="688.2" y="1864" font-size="13" font-family="Segoe UI">0.5654</text><text x="16" y="1910" font-size="14" font-family="Segoe UI">ednet1k_thgkt_no_temporal_seed03</text><rect x="160" y="1890" width="524.7" height="30" fill="#1f6feb" rx="4" /><text x="692.7" y="1910" font-size="13" font-family="Segoe UI">0.5702</text><text x="16" y="1956" font-size="14" font-family="Segoe UI">ednet1k_thgkt_no_temporal_seed04</text><rect x="160" y="1936" width="516.6" height="30" fill="#1f6feb" rx="4" /><text x="684.6" y="1956" font-size="13" font-family="Segoe UI">0.5614</text><text x="16" y="2002" font-size="14" font-family="Segoe UI">ednet1k_thgkt_no_temporal_seed01</text><rect x="160" y="1982" width="516.2" height="30" fill="#1f6feb" rx="4" /><text x="684.2" y="2002" font-size="13" font-family="Segoe UI">0.5610</text><text x="16" y="2048" font-size="14" font-family="Segoe UI">ednet1k_dkt_baseline_seed01</text><rect x="160" y="2028" width="517.3" height="30" fill="#1f6feb" rx="4" /><text x="685.3" y="2048" font-size="13" font-family="Segoe UI">0.5622</text><text x="16" y="2094" font-size="14" font-family="Segoe UI">ednet1k_thgkt_no_temporal_seed06</text><rect x="160" y="2074" width="518.8" height="30" fill="#1f6feb" rx="4" /><text x="686.8" y="2094" font-size="13" font-family="Segoe UI">0.5639</text><text x="16" y="2140" font-size="14" font-family="Segoe UI">ednet1k_dkt_baseline_seed06</text><rect x="160" y="2120" width="518.2" height="30" fill="#1f6feb" rx="4" /><text x="686.2" y="2140" font-size="13" font-family="Segoe UI">0.5632</text><text x="16" y="2186" font-size="14" font-family="Segoe UI">ednet1k_thgkt_cooccurrence_graph_seed07</text><rect x="160" y="2166" width="530.3" height="30" fill="#1f6feb" rx="4" /><text x="698.3" y="2186" font-size="13" font-family="Segoe UI">0.5763</text><text x="16" y="2232" font-size="14" font-family="Segoe UI">ednet1k_dkt_baseline_seed08</text><rect x="160" y="2212" width="516.7" height="30" fill="#1f6feb" rx="4" /><text x="684.7" y="2232" font-size="13" font-family="Segoe UI">0.5615</text><text x="16" y="2278" font-size="14" font-family="Segoe UI">ednet1k_thgkt_no_temporal_seed10</text><rect x="160" y="2258" width="525.2" height="30" fill="#1f6feb" rx="4" /><text x="693.2" y="2278" font-size="13" font-family="Segoe UI">0.5707</text><text x="16" y="2324" font-size="14" font-family="Segoe UI">ednet1k_thgkt_no_temporal_seed05</text><rect x="160" y="2304" width="529.9" height="30" fill="#1f6feb" rx="4" /><text x="697.9" y="2324" font-size="13" font-family="Segoe UI">0.5759</text><text x="16" y="2370" font-size="14" font-family="Segoe UI">ednet1k_sakt_baseline_seed08</text><rect x="160" y="2350" width="524.0" height="30" fill="#1f6feb" rx="4" /><text x="692.0" y="2370" font-size="13" font-family="Segoe UI">0.5695</text><text x="16" y="2416" font-size="14" font-family="Segoe UI">ednet1k_sakt_baseline_seed07</text><rect x="160" y="2396" width="525.8" height="30" fill="#1f6feb" rx="4" /><text x="693.8" y="2416" font-size="13" font-family="Segoe UI">0.5715</text><text x="16" y="2462" font-size="14" font-family="Segoe UI">ednet1k_sakt_baseline_seed05</text><rect x="160" y="2442" width="524.8" height="30" fill="#1f6feb" rx="4" /><text x="692.8" y="2462" font-size="13" font-family="Segoe UI">0.5703</text><text x="16" y="2508" font-size="14" font-family="Segoe UI">ednet1k_sakt_baseline_seed02</text><rect x="160" y="2488" width="527.7" height="30" fill="#1f6feb" rx="4" /><text x="695.7" y="2508" font-size="13" font-family="Segoe UI">0.5734</text><text x="16" y="2554" font-size="14" font-family="Segoe UI">ednet1k_sakt_baseline_seed01</text><rect x="160" y="2534" width="527.3" height="30" fill="#1f6feb" rx="4" /><text x="695.3" y="2554" font-size="13" font-family="Segoe UI">0.5730</text><text x="16" y="2600" font-size="14" font-family="Segoe UI">ednet1k_sakt_baseline_seed10</text><rect x="160" y="2580" width="528.1" height="30" fill="#1f6feb" rx="4" /><text x="696.1" y="2600" font-size="13" font-family="Segoe UI">0.5740</text><text x="16" y="2646" font-size="14" font-family="Segoe UI">ednet1k_sakt_baseline_seed04</text><rect x="160" y="2626" width="529.6" height="30" fill="#1f6feb" rx="4" /><text x="697.6" y="2646" font-size="13" font-family="Segoe UI">0.5756</text><text x="16" y="2692" font-size="14" font-family="Segoe UI">ednet1k_sakt_baseline_seed06</text><rect x="160" y="2672" width="526.8" height="30" fill="#1f6feb" rx="4" /><text x="694.8" y="2692" font-size="13" font-family="Segoe UI">0.5725</text><text x="16" y="2738" font-size="14" font-family="Segoe UI">ednet1k_sakt_baseline_seed03</text><rect x="160" y="2718" width="532.5" height="30" fill="#1f6feb" rx="4" /><text x="700.5" y="2738" font-size="13" font-family="Segoe UI">0.5787</text><text x="16" y="2784" font-size="14" font-family="Segoe UI">ednet1k_sakt_baseline_seed09</text><rect x="160" y="2764" width="533.8" height="30" fill="#1f6feb" rx="4" /><text x="701.8" y="2784" font-size="13" font-family="Segoe UI">0.5802</text><text x="16" y="2830" font-size="14" font-family="Segoe UI">ednet1k_graph_only_seed09</text><rect x="160" y="2810" width="552.5" height="30" fill="#1f6feb" rx="4" /><text x="720.5" y="2830" font-size="13" font-family="Segoe UI">0.6005</text><text x="16" y="2876" font-size="14" font-family="Segoe UI">ednet1k_graph_only_seed06</text><rect x="160" y="2856" width="552.2" height="30" fill="#1f6feb" rx="4" /><text x="720.2" y="2876" font-size="13" font-family="Segoe UI">0.6001</text><text x="16" y="2922" font-size="14" font-family="Segoe UI">ednet1k_graph_only_seed05</text><rect x="160" y="2902" width="552.0" height="30" fill="#1f6feb" rx="4" /><text x="720.0" y="2922" font-size="13" font-family="Segoe UI">0.5999</text><text x="16" y="2968" font-size="14" font-family="Segoe UI">ednet1k_graph_only_seed04</text><rect x="160" y="2948" width="552.9" height="30" fill="#1f6feb" rx="4" /><text x="720.9" y="2968" font-size="13" font-family="Segoe UI">0.6009</text><text x="16" y="3014" font-size="14" font-family="Segoe UI">ednet1k_graph_only_seed01</text><rect x="160" y="2994" width="552.7" height="30" fill="#1f6feb" rx="4" /><text x="720.7" y="3014" font-size="13" font-family="Segoe UI">0.6007</text><text x="16" y="3060" font-size="14" font-family="Segoe UI">ednet1k_graph_only_seed07</text><rect x="160" y="3040" width="553.2" height="30" fill="#1f6feb" rx="4" /><text x="721.2" y="3060" font-size="13" font-family="Segoe UI">0.6012</text><text x="16" y="3106" font-size="14" font-family="Segoe UI">ednet1k_graph_only_seed08</text><rect x="160" y="3086" width="553.0" height="30" fill="#1f6feb" rx="4" /><text x="721.0" y="3106" font-size="13" font-family="Segoe UI">0.6010</text><text x="16" y="3152" font-size="14" font-family="Segoe UI">ednet1k_graph_only_seed03</text><rect x="160" y="3132" width="553.6" height="30" fill="#1f6feb" rx="4" /><text x="721.6" y="3152" font-size="13" font-family="Segoe UI">0.6017</text><text x="16" y="3198" font-size="14" font-family="Segoe UI">ednet1k_graph_only_seed10</text><rect x="160" y="3178" width="560.0" height="30" fill="#1f6feb" rx="4" /><text x="728.0" y="3198" font-size="13" font-family="Segoe UI">0.6086</text><text x="16" y="3244" font-size="14" font-family="Segoe UI">ednet1k_graph_only_seed02</text><rect x="160" y="3224" width="559.7" height="30" fill="#1f6feb" rx="4" /><text x="727.7" y="3244" font-size="13" font-family="Segoe UI">0.6082</text>
</svg>
