<svg xmlns="http://www.w3.org/2000/svg" width="760" height="420" viewBox="0 0 760 420">
  <rect width="100%" height="100%" fill="#ffffff" />
  <text x="16" y="24" font-size="20" font-family="Segoe UI" font-weight="600">Comparison by F1</text>
  <text x="16" y="42" font-size="13" font-family="Segoe UI" fill="#666">Metric: f1</text>
  <text x="16" y="70" font-size="14" font-family="Segoe UI">ednet1k_thgkt_cooccurrence_graph_seed05</text><rect x="160" y="50" width="552.7" height="30" fill="#1f6feb" rx="4" /><text x="720.7" y="70" font-size="13" font-family="Segoe UI">0.8082</text><text x="16" y="116" font-size="14" font-family="Segoe UI">ednet1k_thgkt_no_prereq_seed08</text><rect x="160" y="96" width="558.3" height="30" fill="#1f6feb" rx="4" /><text x="726.3" y="116" font-size="13" font-family="Segoe UI">0.8164</text><text x="16" y="162" font-size="14" font-family="Segoe UI">ednet1k_thgkt_no_prereq_seed05</text><rect x="160" y="142" width="549.5" height="30" fill="#1f6feb" rx="4" /><text x="717.5" y="162" font-size="13" font-family="Segoe UI">0.8035</text><text x="16" y="208" font-size="14" font-family="Segoe UI">ednet1k_thgkt_full_seed01</text><rect x="160" y="188" width="554.0" height="30" fill="#1f6feb" rx="4" /><text x="722.0" y="208" font-size="13" font-family="Segoe UI">0.8101</text><text x="16" y="254" font-size="14" font-family="Segoe UI">ednet1k_thgkt_cooccurrence_graph_seed06</text><rect x="160" y="234" width="554.4" height="30" fill="#1f6feb" rx="4" /><text x="722.4" y="254" font-size="13" font-family="Segoe UI">0.8107</text><text x="16" y="300" font-size="14" font-family="Segoe UI">ednet1k_thgkt_full_seed10</text><rect x="160" y="280" width="547.6" height="30" fill="#1f6feb" rx="4" /><text x="715.6" y="300" font-size="13" font-family="Segoe UI">0.8008</text><text x="16" y="346" font-size="14" font-family="Segoe UI">ednet1k_thgkt_no_prereq_seed07</text><rect x="160" y="326" width="555.8" height="30" fill="#1f6feb" rx="4" /><text x="723.8" y="346" font-size="13" font-family="Segoe UI">0.8127</text><text x="16" y="392" font-size="14" font-family="Segoe UI">ednet1k_thgkt_cooccurrence_graph_seed01</text><rect x="160" y="372" width="552.2" height="30" fill="#1f6feb" rx="4" /><text x="720.2" y="392" font-size="13" font-family="Segoe UI">0.8074</text><text x="16" y="438" font-size="14" font-family="Segoe UI">ednet1k_thgkt_cooccurrence_graph_seed04</text><rect x="160" y="418" width="545.4" height="30" fill="#1f6feb" rx="4" /><text x="713.4" y="438" font-size="13" font-family="Segoe UI">0.7975</text><text x="16" y="484" font-size="14" font-family="Segoe UI">ednet1k_thgkt_cooccurrence_graph_seed02</text><rect x="160" y="464" width="549.0" height="30" fill="#1f6feb" rx="4" /><text x="717.0" y="484" font-size="13" font-family="Segoe UI">0.8028</text><text x="16" y="530" font-size="14" font-family="Segoe UI">ednet1k_thgkt_cooccurrence_graph_seed10</text><rect x="160" y="510" width="545.6" height="30" fill="#1f6feb" rx="4" /><text x="713.6" y="530" font-size="13" font-family="Segoe UI">0.7978</text><text x="16" y="576" font-size="14" font-family="Segoe UI">ednet1k_thgkt_full_seed06</text><rect x="160" y="556" width="551.2" height="30" fill="#1f6feb" rx="4" /><text x="719.2" y="576" font-size="13" font-family="Segoe UI">0.8061</text><text x="16" y="622" font-size="14" font-family="Segoe UI">ednet1k_thgkt_no_prereq_seed09</text><rect x="160" y="602" width="555.0" height="30" fill="#1f6feb" rx="4" /><text x="723.0" y="622" font-size="13" font-family="Segoe UI">0.8115</text><text x="16" y="668" font-size="14" font-family="Segoe UI">ednet1k_thgkt_cooccurrence_graph_seed09</text><rect x="160" y="648" width="557.2" height="30" fill="#1f6feb" rx="4" /><text x="725.2" y="668" font-size="13" font-family="Segoe UI">0.8148</text><text x="16" y="714" font-size="14" font-family="Segoe UI">ednet1k_thgkt_no_prereq_seed02</text><rect x="160" y="694" width="548.7" height="30" fill="#1f6feb" rx="4" /><text x="716.7" y="714" font-size="13" font-family="Segoe UI">0.8024</text><text x="16" y="760" font-size="14" font-family="Segoe UI">ednet1k_dkt_baseline_seed04</text><rect x="160" y="740" width="560.0" height="30" fill="#1f6feb" rx="4" /><text x="728.0" y="760" font-size="13" font-family="Segoe UI">0.8189</text><text x="16" y="806" font-size="14" font-family="Segoe UI">ednet1k_thgkt_full_seed08</text><rect x="160" y="786" width="556.8" height="30" fill="#1f6feb" rx="4" /><text x="724.8" y="806" font-size="13" font-family="Segoe UI">0.8142</text><text x="16" y="852" font-size="14" font-family="Segoe UI">ednet1k_thgkt_no_prereq_seed03</text><rect x="160" y="832" width="542.5" height="30" fill="#1f6feb" rx="4" /><text x="710.5" y="852" font-size="13" font-family="Segoe UI">0.7933</text><text x="16" y="898" font-size="14" font-family="Segoe UI">ednet1k_thgkt_no_prereq_seed04</text><rect x="160" y="878" width="545.2" height="30" fill="#1f6feb" rx="4" /><text x="713.2" y="898" font-size="13" font-family="Segoe UI">0.7973</text><text x="16" y="944" font-size="14" font-family="Segoe UI">ednet1k_thgkt_no_temporal_seed09</text><rect x="160" y="924" width="551.1" height="30" fill="#1f6feb" rx="4" /><text x="719.1" y="944" font-size="13" font-family="Segoe UI">0.8058</text><text x="16" y="990" font-size="14" font-family="Segoe UI">ednet1k_thgkt_no_prereq_seed01</text><rect x="160" y="970" width="549.5" height="30" fill="#1f6feb" rx="4" /><text x="717.5" y="990" font-size="13" font-family="Segoe UI">0.8035</text><text x="16" y="1036" font-size="14" font-family="Segoe UI">ednet1k_thgkt_cooccurrence_graph_seed08</text><rect x="160" y="1016" width="552.5" height="30" fill="#1f6feb" rx="4" /><text x="720.5" y="1036" font-size="13" font-family="Segoe UI">0.8079</text><text x="16" y="1082" font-size="14" font-family="Segoe UI">ednet1k_dkt_baseline_seed05</text><rect x="160" y="1062" width="559.1" height="30" fill="#1f6feb" rx="4" /><text x="727.1" y="1082" font-size="13" font-family="Segoe UI">0.8175</text><text x="16" y="1128" font-size="14" font-family="Segoe UI">ednet1k_dkt_baseline_seed02</text><rect x="160" y="1108" width="559.9" height="30" fill="#1f6feb" rx="4" /><text x="727.9" y="1128" font-size="13" font-family="Segoe UI">0.8188</text><text x="16" y="1174" font-size="14" font-family="Segoe UI">ednet1k_thgkt_no_prereq_seed10</text><rect x="160" y="1154" width="546.7" height="30" fill="#1f6feb" rx="4" /><text x="714.7" y="1174" font-size="13" font-family="Segoe UI">0.7995</text><text x="16" y="1220" font-size="14" font-family="Segoe UI">ednet1k_dkt_baseline_seed07</text><rect x="160" y="1200" width="557.8" height="30" fill="#1f6feb" rx="4" /><text x="725.8" y="1220" font-size="13" font-family="Segoe UI">0.8157</text><text x="16" y="1266" font-size="14" font-family="Segoe UI">ednet1k_thgkt_full_seed04</text><rect x="160" y="1246" width="547.2" height="30" fill="#1f6feb" rx="4" /><text x="715.2" y="1266" font-size="13" font-family="Segoe UI">0.8002</text><text x="16" y="1312" font-size="14" font-family="Segoe UI">ednet1k_thgkt_cooccurrence_graph_seed03</text><rect x="160" y="1292" width="550.5" height="30" fill="#1f6feb" rx="4" /><text x="718.5" y="1312" font-size="13" font-family="Segoe UI">0.8050</text><text x="16" y="1358" font-size="14" font-family="Segoe UI">ednet1k_thgkt_no_prereq_seed06</text><rect x="160" y="1338" width="552.2" height="30" fill="#1f6feb" rx="4" /><text x="720.2" y="1358" font-size="13" font-family="Segoe UI">0.8075</text><text x="16" y="1404" font-size="14" font-family="Segoe UI">ednet1k_dkt_baseline_seed10</text><rect x="160" y="1384" width="555.0" height="30" fill="#1f6feb" rx="4" /><text x="723.0" y="1404" font-size="13" font-family="Segoe UI">0.8116</text><text x="16" y="1450" font-size="14" font-family="Segoe UI">ednet1k_thgkt_no_temporal_seed07</text><rect x="160" y="1430" width="551.2" height="30" fill="#1f6feb" rx="4" /><text x="719.2" y="1450" font-size="13" font-family="Segoe UI">0.8059</text><text x="16" y="1496" font-size="14" font-family="Segoe UI">ednet1k_dkt_baseline_seed09</text><rect x="160" y="1476" width="557.5" height="30" fill="#1f6feb" rx="4" /><text x="725.5" y="1496" font-size="13" font-family="Segoe UI">0.8152</text><text x="16" y="1542" font-size="14" font-family="Segoe UI">ednet1k_thgkt_no_temporal_seed02</text><rect x="160" y="1522" width="549.0" height="30" fill="#1f6feb" rx="4" /><text x="717.0" y="1542" font-size="13" font-family="Segoe UI">0.8028</text><text x="16" y="1588" font-size="14" font-family="Segoe UI">ednet1k_thgkt_full_seed05</text><rect x="160" y="1568" width="549.9" height="30" fill="#1f6feb" rx="4" /><text x="717.9" y="1588" font-size="13" font-family="Segoe UI">0.8041</text><text x="16" y="1634" font-size="14" font-family="Segoe UI">ednet1k_thgkt_full_seed02</text><rect x="160" y="1614" width="548.4" height="30" fill="#1f6feb" rx="4" /><text x="716.4" y="1634" font-size="13" font-family="Segoe UI">0.8019</text><text x="16" y="1680" font-size="14" font-family="Segoe UI">ednet1k_thgkt_full_seed07</text><rect x="160" y="1660" width="556.3" height="30" fill="#1f6feb" rx="4" /><text x="724.3" y="1680" font-size="13" font-family="Segoe UI">0.8135</text><text x="16" y="1726" font-size="14" font-family="Segoe UI">ednet1k_dkt_baseline_seed03</text><rect x="160" y="1706" width="558.1" height="30" fill="#1f6feb" rx="4" /><text x="726.1" y="1726" font-size="13" font-family="Segoe UI">0.8161</text><text x="16" y="1772" font-size="14" font-family="Segoe UI">ednet1k_thgkt_full_seed09</text><rect x="160" y="1752" width="556.3" height="30" fill="#1f6feb" rx="4" /><text x="724.3" y="1772" font-size="13" font-family="Segoe UI">0.8135</text><text x="16" y="1818" font-size="14" font-family="Segoe UI">ednet1k_thgkt_full_seed03</text><rect x="160" y="1798" width="547.8" height="30" fill="#1f6feb" rx="4" /><text x="715.8" y="1818" font-size="13" font-family="Segoe UI">0.8011</text><text x="16" y="1864" font-size="14" font-family="Segoe UI">ednet1k_thgkt_no_temporal_seed08</text><rect x="160" y="1844" width="549.8" height="30" fill="#1f6feb" rx="4" /><text x="717.8" y="1864" font-size="13" font-family="Segoe UI">0.8040</text><text x="16" y="1910" font-size="14" font-family="Segoe UI">ednet1k_thgkt_no_temporal_seed03</text><rect x="160" y="1890" width="554.9" height="30" fill="#1f6feb" rx="4" /><text x="722.9" y="1910" font-size="13" font-family="Segoe UI">0.8114</text><text x="16" y="1956" font-size="14" font-family="Segoe UI">ednet1k_thgkt_no_temporal_seed04</text><rect x="160" y="1936" width="551.1" height="30" fill="#1f6feb" rx="4" /><text x="719.1" y="1956" font-size="13" font-family="Segoe UI">0.8058</text><text x="16" y="2002" font-size="14" font-family="Segoe UI">ednet1k_thgkt_no_temporal_seed01</text><rect x="160" y="1982" width="551.4" height="30" fill="#1f6feb" rx="4" /><text x="719.4" y="2002" font-size="13" font-family="Segoe UI">0.8063</text><text x="16" y="2048" font-size="14" font-family="Segoe UI">ednet1k_dkt_baseline_seed01</text><rect x="160" y="2028" width="558.0" height="30" fill="#1f6feb" rx="4" /><text x="726.0" y="2048" font-size="13" font-family="Segoe UI">0.8159</text><text x="16" y="2094" font-size="14" font-family="Segoe UI">ednet1k_thgkt_no_temporal_seed06</text><rect x="160" y="2074" width="544.3" height="30" fill="#1f6feb" rx="4" /><text x="712.3" y="2094" font-size="13" font-family="Segoe UI">0.7960</text><text x="16" y="2140" font-size="14" font-family="Segoe UI">ednet1k_dkt_baseline_seed06</text><rect x="160" y="2120" width="555.5" height="30" fill="#1f6feb" rx="4" /><text x="723.5" y="2140" font-size="13" font-family="Segoe UI">0.8123</text><text x="16" y="2186" font-size="14" font-family="Segoe UI">ednet1k_thgkt_cooccurrence_graph_seed07</text><rect x="160" y="2166" width="551.8" height="30" fill="#1f6feb" rx="4" /><text x="719.8" y="2186" font-size="13" font-family="Segoe UI">0.8069</text><text x="16" y="2232" font-size="14" font-family="Segoe UI">ednet1k_dkt_baseline_seed08</text><rect x="160" y="2212" width="555.7" height="30" fill="#1f6feb" rx="4" /><text x="723.7" y="2232" font-size="13" font-family="Segoe UI">0.8126</text><text x="16" y="2278" font-size="14" font-family="Segoe UI">ednet1k_thgkt_no_temporal_seed10</text><rect x="160" y="2258" width="545.6" height="30" fill="#1f6feb" rx="4" /><text x="713.6" y="2278" font-size="13" font-family="Segoe UI">0.7978</text><text x="16" y="2324" font-size="14" font-family="Segoe UI">ednet1k_thgkt_no_temporal_seed05</text><rect x="160" y="2304" width="547.2" height="30" fill="#1f6feb" rx="4" /><text x="715.2" y="2324" font-size="13" font-family="Segoe UI">0.8002</text><text x="16" y="2370" font-size="14" font-family="Segoe UI">ednet1k_sakt_baseline_seed08</text><rect x="160" y="2350" width="555.1" height="30" fill="#1f6feb" rx="4" /><text x="723.1" y="2370" font-size="13" font-family="Segoe UI">0.8117</text><text x="16" y="2416" font-size="14" font-family="Segoe UI">ednet1k_sakt_baseline_seed07</text><rect x="160" y="2396" width="554.4" height="30" fill="#1f6feb" rx="4" /><text x="722.4" y="2416" font-size="13" font-family="Segoe UI">0.8107</text><text x="16" y="2462" font-size="14" font-family="Segoe UI">ednet1k_sakt_baseline_seed05</text><rect x="160" y="2442" width="558.3" height="30" fill="#1f6feb" rx="4" /><text x="726.3" y="2462" font-size="13" font-family="Segoe UI">0.8164</text><text x="16" y="2508" font-size="14" font-family="Segoe UI">ednet1k_sakt_baseline_seed02</text><rect x="160" y="2488" width="558.8" height="30" fill="#1f6feb" rx="4" /><text x="726.8" y="2508" font-size="13" font-family="Segoe UI">0.8171</text><text x="16" y="2554" font-size="14" font-family="Segoe UI">ednet1k_sakt_baseline_seed01</text><rect x="160" y="2534" width="554.6" height="30" fill="#1f6feb" rx="4" /><text x="722.6" y="2554" font-size="13" font-family="Segoe UI">0.8109</text><text x="16" y="2600" font-size="14" font-family="Segoe UI">ednet1k_sakt_baseline_seed10</text><rect x="160" y="2580" width="551.9" height="30" fill="#1f6feb" rx="4" /><text x="719.9" y="2600" font-size="13" font-family="Segoe UI">0.8071</text><text x="16" y="2646" font-size="14" font-family="Segoe UI">ednet1k_sakt_baseline_seed04</text><rect x="160" y="2626" width="559.4" height="30" fill="#1f6feb" rx="4" /><text x="727.4" y="2646" font-size="13" font-family="Segoe UI">0.8180</text><text x="16" y="2692" font-size="14" font-family="Segoe UI">ednet1k_sakt_baseline_seed06</text><rect x="160" y="2672" width="557.4" height="30" fill="#1f6feb" rx="4" /><text x="725.4" y="2692" font-size="13" font-family="Segoe UI">0.8151</text><text x="16" y="2738" font-size="14" font-family="Segoe UI">ednet1k_sakt_baseline_seed03</text><rect x="160" y="2718" width="558.5" height="30" fill="#1f6feb" rx="4" /><text x="726.5" y="2738" font-size="13" font-family="Segoe UI">0.8167</text><text x="16" y="2784" font-size="14" font-family="Segoe UI">ednet1k_sakt_baseline_seed09</text><rect x="160" y="2764" width="549.5" height="30" fill="#1f6feb" rx="4" /><text x="717.5" y="2784" font-size="13" font-family="Segoe UI">0.8036</text><text x="16" y="2830" font-size="14" font-family="Segoe UI">ednet1k_graph_only_seed09</text><rect x="160" y="2810" width="555.3" height="30" fill="#1f6feb" rx="4" /><text x="723.3" y="2830" font-size="13" font-family="Segoe UI">0.8120</text><text x="16" y="2876" font-size="14" font-family="Segoe UI">ednet1k_graph_only_seed06</text><rect x="160" y="2856" width="555.3" height="30" fill="#1f6feb" rx="4" /><text x="723.3" y="2876" font-size="13" font-family="Segoe UI">0.8120</text><text x="16" y="2922" font-size="14" font-family="Segoe UI">ednet1k_graph_only_seed05</text><rect x="160" y="2902" width="554.8" height="30" fill="#1f6feb" rx="4" /><text x="722.8" y="2922" font-size="13" font-family="Segoe UI">0.8112</text><text x="16" y="2968" font-size="14" font-family="Segoe UI">ednet1k_graph_only_seed04</text><rect x="160" y="2948" width="555.3" height="30" fill="#1f6feb" rx="4" /><text x="723.3" y="2968" font-size="13" font-family="Segoe UI">0.8120</text><text x="16" y="3014" font-size="14" font-family="Segoe UI">ednet1k_graph_only_seed01</text><rect x="160" y="2994" width="555.3" height="30" fill="#1f6feb" rx="4" /><text x="723.3" y="3014" font-size="13" font-family="Segoe UI">0.8120</text><text x="16" y="3060" font-size="14" font-family="Segoe UI">ednet1k_graph_only_seed07</text><rect x="160" y="3040" width="554.8" height="30" fill="#1f6feb" rx="4" /><text x="722.8" y="3060" font-size="13" font-family="Segoe UI">0.8112</text><text x="16" y="3106" font-size="14" font-family="Segoe UI">ednet1k_graph_only_seed08</text><rect x="160" y="3086" width="555.3" height="30" fill="#1f6feb" rx="4" /><text x="723.3" y="3106" font-size="13" font-family="Segoe UI">0.8120</text><text x="16" y="3152" font-size="14" font-family="Segoe UI">ednet1k_graph_only_seed03</text><rect x="160" y="3132" width="555.3" height="30" fill="#1f6feb" rx="4" /><text x="723.3" y="3152" font-size="13" font-family="Segoe UI">0.8119</text><text x="16" y="3198" font-size="14" font-family="Segoe UI">ednet1k_graph_only_seed10</text><rect x="160" y="3178" width="553.0" height="30" fill="#1f6feb" rx="4" /><text x="721.0" y="3198" font-size="13" font-family="Segoe UI">0.8087</text><text x="16" y="3244" font-size="14" font-family="Segoe UI">ednet1k_graph_only_seed02</text><rect x="160" y="3224" width="553.0" height="30" fill="#1f6feb" rx="4" /><text x="721.0" y="3244" font-size="13" font-family="Segoe UI">0.8087</text>
</svg>
