<svg xmlns="http://www.w3.org/2000/svg" width="760" height="420" viewBox="0 0 760 420">
  <rect width="100%" height="100%" fill="#ffffff" />
  <text x="16" y="24" font-size="20" font-family="Segoe UI" font-weight="600">Comparison by Accuracy</text>
  <text x="16" y="42" font-size="13" font-family="Segoe UI" fill="#666">Metric: accuracy</text>
  <text x="16" y="70" font-size="14" font-family="Segoe UI">ednet1k_thgkt_cooccurrence_graph_seed05</text><rect x="160" y="50" width="555.6" height="30" fill="#1f6feb" rx="4" /><text x="723.6" y="70" font-size="13" font-family="Segoe UI">0.7157</text><text x="16" y="116" font-size="14" font-family="Segoe UI">ednet1k_thgkt_no_prereq_seed08</text><rect x="160" y="96" width="556.9" height="30" fill="#1f6feb" rx="4" /><text x="724.9" y="116" font-size="13" font-family="Segoe UI">0.7174</text><text x="16" y="162" font-size="14" font-family="Segoe UI">ednet1k_thgkt_no_prereq_seed05</text><rect x="160" y="142" width="554.6" height="30" fill="#1f6feb" rx="4" /><text x="722.6" y="162" font-size="13" font-family="Segoe UI">0.7144</text><text x="16" y="208" font-size="14" font-family="Segoe UI">ednet1k_thgkt_full_seed01</text><rect x="160" y="188" width="557.1" height="30" fill="#1f6feb" rx="4" /><text x="725.1" y="208" font-size="13" font-family="Segoe UI">0.7177</text><text x="16" y="254" font-size="14" font-family="Segoe UI">ednet1k_thgkt_cooccurrence_graph_seed06</text><rect x="160" y="234" width="557.7" height="30" fill="#1f6feb" rx="4" /><text x="725.7" y="254" font-size="13" font-family="Segoe UI">0.7185</text><text x="16" y="300" font-size="14" font-family="Segoe UI">ednet1k_thgkt_full_seed10</text><rect x="160" y="280" width="554.3" height="30" fill="#1f6feb" rx="4" /><text x="722.3" y="300" font-size="13" font-family="Segoe UI">0.7141</text><text x="16" y="346" font-size="14" font-family="Segoe UI">ednet1k_thgkt_no_prereq_seed07</text><rect x="160" y="326" width="558.9" height="30" fill="#1f6feb" rx="4" /><text x="726.9" y="346" font-size="13" font-family="Segoe UI">0.7200</text><text x="16" y="392" font-size="14" font-family="Segoe UI">ednet1k_thgkt_cooccurrence_graph_seed01</text><rect x="160" y="372" width="555.6" height="30" fill="#1f6feb" rx="4" /><text x="723.6" y="392" font-size="13" font-family="Segoe UI">0.7158</text><text x="16" y="438" font-size="14" font-family="Segoe UI">ednet1k_thgkt_cooccurrence_graph_seed04</text><rect x="160" y="418" width="552.2" height="30" fill="#1f6feb" rx="4" /><text x="720.2" y="438" font-size="13" font-family="Segoe UI">0.7114</text><text x="16" y="484" font-size="14" font-family="Segoe UI">ednet1k_thgkt_cooccurrence_graph_seed02</text><rect x="160" y="464" width="553.5" height="30" fill="#1f6feb" rx="4" /><text x="721.5" y="484" font-size="13" font-family="Segoe UI">0.7130</text><text x="16" y="530" font-size="14" font-family="Segoe UI">ednet1k_thgkt_cooccurrence_graph_seed10</text><rect x="160" y="510" width="552.2" height="30" fill="#1f6feb" rx="4" /><text x="720.2" y="530" font-size="13" font-family="Segoe UI">0.7114</text><text x="16" y="576" font-size="14" font-family="Segoe UI">ednet1k_thgkt_full_seed06</text><rect x="160" y="556" width="556.1" height="30" fill="#1f6feb" rx="4" /><text x="724.1" y="576" font-size="13" font-family="Segoe UI">0.7163</text><text x="16" y="622" font-size="14" font-family="Segoe UI">ednet1k_thgkt_no_prereq_seed09</text><rect x="160" y="602" width="556.7" height="30" fill="#1f6feb" rx="4" /><text x="724.7" y="622" font-size="13" font-family="Segoe UI">0.7171</text><text x="16" y="668" font-size="14" font-family="Segoe UI">ednet1k_thgkt_cooccurrence_graph_seed09</text><rect x="160" y="648" width="557.7" height="30" fill="#1f6feb" rx="4" /><text x="725.7" y="668" font-size="13" font-family="Segoe UI">0.7184</text><text x="16" y="714" font-size="14" font-family="Segoe UI">ednet1k_thgkt_no_prereq_seed02</text><rect x="160" y="694" width="554.0" height="30" fill="#1f6feb" rx="4" /><text x="722.0" y="714" font-size="13" font-family="Segoe UI">0.7137</text><text x="16" y="760" font-size="14" font-family="Segoe UI">ednet1k_dkt_baseline_seed04</text><rect x="160" y="740" width="560.0" height="30" fill="#1f6feb" rx="4" /><text x="728.0" y="760" font-size="13" font-family="Segoe UI">0.7214</text><text x="16" y="806" font-size="14" font-family="Segoe UI">ednet1k_thgkt_full_seed08</text><rect x="160" y="786" width="556.0" height="30" fill="#1f6feb" rx="4" /><text x="724.0" y="806" font-size="13" font-family="Segoe UI">0.7163</text><text x="16" y="852" font-size="14" font-family="Segoe UI">ednet1k_thgkt_no_prereq_seed03</text><rect x="160" y="832" width="550.0" height="30" fill="#1f6feb" rx="4" /><text x="718.0" y="852" font-size="13" font-family="Segoe UI">0.7085</text><text x="16" y="898" font-size="14" font-family="Segoe UI">ednet1k_thgkt_no_prereq_seed04</text><rect x="160" y="878" width="551.6" height="30" fill="#1f6feb" rx="4" /><text x="719.6" y="898" font-size="13" font-family="Segoe UI">0.7106</text><text x="16" y="944" font-size="14" font-family="Segoe UI">ednet1k_thgkt_no_temporal_seed09</text><rect x="160" y="924" width="556.4" height="30" fill="#1f6feb" rx="4" /><text x="724.4" y="944" font-size="13" font-family="Segoe UI">0.7167</text><text x="16" y="990" font-size="14" font-family="Segoe UI">ednet1k_thgkt_no_prereq_seed01</text><rect x="160" y="970" width="554.1" height="30" fill="#1f6feb" rx="4" /><text x="722.1" y="990" font-size="13" font-family="Segoe UI">0.7138</text><text x="16" y="1036" font-size="14" font-family="Segoe UI">ednet1k_thgkt_cooccurrence_graph_seed08</text><rect x="160" y="1016" width="555.8" height="30" fill="#1f6feb" rx="4" /><text x="723.8" y="1036" font-size="13" font-family="Segoe UI">0.7160</text><text x="16" y="1082" font-size="14" font-family="Segoe UI">ednet1k_dkt_baseline_seed05</text><rect x="160" y="1062" width="558.4" height="30" fill="#1f6feb" rx="4" /><text x="726.4" y="1082" font-size="13" font-family="Segoe UI">0.7194</text><text x="16" y="1128" font-size="14" font-family="Segoe UI">ednet1k_dkt_baseline_seed02</text><rect x="160" y="1108" width="559.5" height="30" fill="#1f6feb" rx="4" /><text x="727.5" y="1128" font-size="13" font-family="Segoe UI">0.7207</text><text x="16" y="1174" font-size="14" font-family="Segoe UI">ednet1k_thgkt_no_prereq_seed10</text><rect x="160" y="1154" width="553.3" height="30" fill="#1f6feb" rx="4" /><text x="721.3" y="1174" font-size="13" font-family="Segoe UI">0.7128</text><text x="16" y="1220" font-size="14" font-family="Segoe UI">ednet1k_dkt_baseline_seed07</text><rect x="160" y="1200" width="559.5" height="30" fill="#1f6feb" rx="4" /><text x="727.5" y="1220" font-size="13" font-family="Segoe UI">0.7208</text><text x="16" y="1266" font-size="14" font-family="Segoe UI">ednet1k_thgkt_full_seed04</text><rect x="160" y="1246" width="552.8" height="30" fill="#1f6feb" rx="4" /><text x="720.8" y="1266" font-size="13" font-family="Segoe UI">0.7121</text><text x="16" y="1312" font-size="14" font-family="Segoe UI">ednet1k_thgkt_cooccurrence_graph_seed03</text><rect x="160" y="1292" width="556.4" height="30" fill="#1f6feb" rx="4" /><text x="724.4" y="1312" font-size="13" font-family="Segoe UI">0.7167</text><text x="16" y="1358" font-size="14" font-family="Segoe UI">ednet1k_thgkt_no_prereq_seed06</text><rect x="160" y="1338" width="555.5" height="30" fill="#1f6feb" rx="4" /><text x="723.5" y="1358" font-size="13" font-family="Segoe UI">0.7155</text><text x="16" y="1404" font-size="14" font-family="Segoe UI">ednet1k_dkt_baseline_seed10</text><rect x="160" y="1384" width="558.2" height="30" fill="#1f6feb" rx="4" /><text x="726.2" y="1404" font-size="13" font-family="Segoe UI">0.7190</text><text x="16" y="1450" font-size="14" font-family="Segoe UI">ednet1k_thgkt_no_temporal_seed07</text><rect x="160" y="1430" width="555.7" height="30" fill="#1f6feb" rx="4" /><text x="723.7" y="1450" font-size="13" font-family="Segoe UI">0.7158</text><text x="16" y="1496" font-size="14" font-family="Segoe UI">ednet1k_dkt_baseline_seed09</text><rect x="160" y="1476" width="557.8" height="30" fill="#1f6feb" rx="4" /><text x="725.8" y="1496" font-size="13" font-family="Segoe UI">0.7185</text><text x="16" y="1542" font-size="14" font-family="Segoe UI">ednet1k_thgkt_no_temporal_seed02</text><rect x="160" y="1522" width="553.5" height="30" fill="#1f6feb" rx="4" /><text x="721.5" y="1542" font-size="13" font-family="Segoe UI">0.7130</text><text x="16" y="1588" font-size="14" font-family="Segoe UI">ednet1k_thgkt_full_seed05</text><rect x="160" y="1568" width="554.7" height="30" fill="#1f6feb" rx="4" /><text x="722.7" y="1588" font-size="13" font-family="Segoe UI">0.7146</text><text x="16" y="1634" font-size="14" font-family="Segoe UI">ednet1k_thgkt_full_seed02</text><rect x="160" y="1614" width="552.7" height="30" fill="#1f6feb" rx="4" /><text x="720.7" y="1634" font-size="13" font-family="Segoe UI">0.7121</text><text x="16" y="1680" font-size="14" font-family="Segoe UI">ednet1k_thgkt_full_seed07</text><rect x="160" y="1660" width="556.5" height="30" fill="#1f6feb" rx="4" /><text x="724.5" y="1680" font-size="13" font-family="Segoe UI">0.7169</text><text x="16" y="1726" font-size="14" font-family="Segoe UI">ednet1k_dkt_baseline_seed03</text><rect x="160" y="1706" width="559.3" height="30" fill="#1f6feb" rx="4" /><text x="727.3" y="1726" font-size="13" font-family="Segoe UI">0.7205</text><text x="16" y="1772" font-size="14" font-family="Segoe UI">ednet1k_thgkt_full_seed09</text><rect x="160" y="1752" width="557.6" height="30" fill="#1f6feb" rx="4" /><text x="725.6" y="1772" font-size="13" font-family="Segoe UI">0.7183</text><text x="16" y="1818" font-size="14" font-family="Segoe UI">ednet1k_thgkt_full_seed03</text><rect x="160" y="1798" width="553.7" height="30" fill="#1f6feb" rx="4" /><text x="721.7" y="1818" font-size="13" font-family="Segoe UI">0.7133</text><text x="16" y="1864" font-size="14" font-family="Segoe UI">ednet1k_thgkt_no_temporal_seed08</text><rect x="160" y="1844" width="554.3" height="30" fill="#1f6feb" rx="4" /><text x="722.3" y="1864" font-size="13" font-family="Segoe UI">0.7141</text><text x="16" y="1910" font-size="14" font-family="Segoe UI">ednet1k_thgkt_no_temporal_seed03</text><rect x="160" y="1890" width="556.3" height="30" fill="#1f6feb" rx="4" /><text x="724.3" y="1910" font-size="13" font-family="Segoe UI">0.7167</text><text x="16" y="1956" font-size="14" font-family="Segoe UI">ednet1k_thgkt_no_temporal_seed04</text><rect x="160" y="1936" width="555.5" height="30" fill="#1f6feb" rx="4" /><text x="723.5" y="1956" font-size="13" font-family="Segoe UI">0.7155</text><text x="16" y="2002" font-size="14" font-family="Segoe UI">ednet1k_thgkt_no_temporal_seed01</text><rect x="160" y="1982" width="554.2" height="30" fill="#1f6feb" rx="4" /><text x="722.2" y="2002" font-size="13" font-family="Segoe UI">0.7140</text><text x="16" y="2048" font-size="14" font-family="Segoe UI">ednet1k_dkt_baseline_seed01</text><rect x="160" y="2028" width="558.4" height="30" fill="#1f6feb" rx="4" /><text x="726.4" y="2048" font-size="13" font-family="Segoe UI">0.7193</text><text x="16" y="2094" font-size="14" font-family="Segoe UI">ednet1k_thgkt_no_temporal_seed06</text><rect x="160" y="2074" width="550.4" height="30" fill="#1f6feb" rx="4" /><text x="718.4" y="2094" font-size="13" font-family="Segoe UI">0.7090</text><text x="16" y="2140" font-size="14" font-family="Segoe UI">ednet1k_dkt_baseline_seed06</text><rect x="160" y="2120" width="558.0" height="30" fill="#1f6feb" rx="4" /><text x="726.0" y="2140" font-size="13" font-family="Segoe UI">0.7188</text><text x="16" y="2186" font-size="14" font-family="Segoe UI">ednet1k_thgkt_cooccurrence_graph_seed07</text><rect x="160" y="2166" width="554.9" height="30" fill="#1f6feb" rx="4" /><text x="722.9" y="2186" font-size="13" font-family="Segoe UI">0.7148</text><text x="16" y="2232" font-size="14" font-family="Segoe UI">ednet1k_dkt_baseline_seed08</text><rect x="160" y="2212" width="557.5" height="30" fill="#1f6feb" rx="4" /><text x="725.5" y="2232" font-size="13" font-family="Segoe UI">0.7182</text><text x="16" y="2278" font-size="14" font-family="Segoe UI">ednet1k_thgkt_no_temporal_seed10</text><rect x="160" y="2258" width="551.9" height="30" fill="#1f6feb" rx="4" /><text x="719.9" y="2278" font-size="13" font-family="Segoe UI">0.7109</text><text x="16" y="2324" font-size="14" font-family="Segoe UI">ednet1k_thgkt_no_temporal_seed05</text><rect x="160" y="2304" width="552.8" height="30" fill="#1f6feb" rx="4" /><text x="720.8" y="2324" font-size="13" font-family="Segoe UI">0.7121</text><text x="16" y="2370" font-size="14" font-family="Segoe UI">ednet1k_sakt_baseline_seed08</text><rect x="160" y="2350" width="553.9" height="30" fill="#1f6feb" rx="4" /><text x="721.9" y="2370" font-size="13" font-family="Segoe UI">0.7135</text><text x="16" y="2416" font-size="14" font-family="Segoe UI">ednet1k_sakt_baseline_seed07</text><rect x="160" y="2396" width="554.4" height="30" fill="#1f6feb" rx="4" /><text x="722.4" y="2416" font-size="13" font-family="Segoe UI">0.7142</text><text x="16" y="2462" font-size="14" font-family="Segoe UI">ednet1k_sakt_baseline_seed05</text><rect x="160" y="2442" width="555.3" height="30" fill="#1f6feb" rx="4" /><text x="723.3" y="2462" font-size="13" font-family="Segoe UI">0.7154</text><text x="16" y="2508" font-size="14" font-family="Segoe UI">ednet1k_sakt_baseline_seed02</text><rect x="160" y="2488" width="553.8" height="30" fill="#1f6feb" rx="4" /><text x="721.8" y="2508" font-size="13" font-family="Segoe UI">0.7134</text><text x="16" y="2554" font-size="14" font-family="Segoe UI">ednet1k_sakt_baseline_seed01</text><rect x="160" y="2534" width="553.4" height="30" fill="#1f6feb" rx="4" /><text x="721.4" y="2554" font-size="13" font-family="Segoe UI">0.7129</text><text x="16" y="2600" font-size="14" font-family="Segoe UI">ednet1k_sakt_baseline_seed10</text><rect x="160" y="2580" width="551.7" height="30" fill="#1f6feb" rx="4" /><text x="719.7" y="2600" font-size="13" font-family="Segoe UI">0.7107</text><text x="16" y="2646" font-size="14" font-family="Segoe UI">ednet1k_sakt_baseline_seed04</text><rect x="160" y="2626" width="552.6" height="30" fill="#1f6feb" rx="4" /><text x="720.6" y="2646" font-size="13" font-family="Segoe UI">0.7118</text><text x="16" y="2692" font-size="14" font-family="Segoe UI">ednet1k_sakt_baseline_seed06</text><rect x="160" y="2672" width="553.3" height="30" fill="#1f6feb" rx="4" /><text x="721.3" y="2692" font-size="13" font-family="Segoe UI">0.7127</text><text x="16" y="2738" font-size="14" font-family="Segoe UI">ednet1k_sakt_baseline_seed03</text><rect x="160" y="2718" width="550.5" height="30" fill="#1f6feb" rx="4" /><text x="718.5" y="2738" font-size="13" font-family="Segoe UI">0.7092</text><text x="16" y="2784" font-size="14" font-family="Segoe UI">ednet1k_sakt_baseline_seed09</text><rect x="160" y="2764" width="551.2" height="30" fill="#1f6feb" rx="4" /><text x="719.2" y="2784" font-size="13" font-family="Segoe UI">0.7101</text><text x="16" y="2830" font-size="14" font-family="Segoe UI">ednet1k_graph_only_seed09</text><rect x="160" y="2810" width="535.9" height="30" fill="#1f6feb" rx="4" /><text x="703.9" y="2830" font-size="13" font-family="Segoe UI">0.6904</text><text x="16" y="2876" font-size="14" font-family="Segoe UI">ednet1k_graph_only_seed06</text><rect x="160" y="2856" width="536.0" height="30" fill="#1f6feb" rx="4" /><text x="704.0" y="2876" font-size="13" font-family="Segoe UI">0.6904</text><text x="16" y="2922" font-size="14" font-family="Segoe UI">ednet1k_graph_only_seed05</text><rect x="160" y="2902" width="534.6" height="30" fill="#1f6feb" rx="4" /><text x="702.6" y="2922" font-size="13" font-family="Segoe UI">0.6886</text><text x="16" y="2968" font-size="14" font-family="Segoe UI">ednet1k_graph_only_seed04</text><rect x="160" y="2948" width="535.9" height="30" fill="#1f6feb" rx="4" /><text x="703.9" y="2968" font-size="13" font-family="Segoe UI">0.6904</text><text x="16" y="3014" font-size="14" font-family="Segoe UI">ednet1k_graph_only_seed01</text><rect x="160" y="2994" width="535.9" height="30" fill="#1f6feb" rx="4" /><text x="703.9" y="3014" font-size="13" font-family="Segoe UI">0.6904</text><text x="16" y="3060" font-size="14" font-family="Segoe UI">ednet1k_graph_only_seed07</text><rect x="160" y="3040" width="534.6" height="30" fill="#1f6feb" rx="4" /><text x="702.6" y="3060" font-size="13" font-family="Segoe UI">0.6886</text><text x="16" y="3106" font-size="14" font-family="Segoe UI">ednet1k_graph_only_seed08</text><rect x="160" y="3086" width="535.9" height="30" fill="#1f6feb" rx="4" /><text x="703.9" y="3106" font-size="13" font-family="Segoe UI">0.6904</text><text x="16" y="3152" font-size="14" font-family="Segoe UI">ednet1k_graph_only_seed03</text><rect x="160" y="3132" width="535.9" height="30" fill="#1f6feb" rx="4" /><text x="703.9" y="3152" font-size="13" font-family="Segoe UI">0.6903</text><text x="16" y="3198" font-size="14" font-family="Segoe UI">ednet1k_graph_only_seed10</text><rect x="160" y="3178" width="526.9" height="30" fill="#1f6feb" rx="4" /><text x="694.9" y="3198" font-size="13" font-family="Segoe UI">0.6788</text><text x="16" y="3244" font-size="14" font-family="Segoe UI">ednet1k_graph_only_seed02</text><rect x="160" y="3224" width="526.9" height="30" fill="#1f6feb" rx="4" /><text x="694.9" y="3244" font-size="13" font-family="Segoe UI">0.6788</text>
</svg>
