<svg xmlns="http://www.w3.org/2000/svg" width="760" height="420" viewBox="0 0 760 420">
  <rect width="100%" height="100%" fill="#ffffff" />
  <text x="16" y="24" font-size="20" font-family="Segoe UI" font-weight="600">Ablation Comparison</text>
  <text x="16" y="42" font-size="13" font-family="Segoe UI" fill="#666">Metric: auc</text>
  <text x="16" y="70" font-size="14" font-family="Segoe UI">ednet1k_dkt_baseline_seed01</text><rect x="160" y="50" width="554.5" height="30" fill="#1f6feb" rx="4" /><text x="722.5" y="70" font-size="13" font-family="Segoe UI">0.7204</text><text x="16" y="116" font-size="14" font-family="Segoe UI">ednet1k_dkt_baseline_seed02</text><rect x="160" y="96" width="557.1" height="30" fill="#1f6feb" rx="4" /><text x="725.1" y="116" font-size="13" font-family="Segoe UI">0.7238</text><text x="16" y="162" font-size="14" font-family="Segoe UI">ednet1k_dkt_baseline_seed03</text><rect x="160" y="142" width="555.9" height="30" fill="#1f6feb" rx="4" /><text x="723.9" y="162" font-size="13" font-family="Segoe UI">0.7221</text><text x="16" y="208" font-size="14" font-family="Segoe UI">ednet1k_dkt_baseline_seed04</text><rect x="160" y="188" width="557.5" height="30" fill="#1f6feb" rx="4" /><text x="725.5" y="208" font-size="13" font-family="Segoe UI">0.7243</text><text x="16" y="254" font-size="14" font-family="Segoe UI">ednet1k_dkt_baseline_seed05</text><rect x="160" y="234" width="557.2" height="30" fill="#1f6feb" rx="4" /><text x="725.2" y="254" font-size="13" font-family="Segoe UI">0.7239</text><text x="16" y="300" font-size="14" font-family="Segoe UI">ednet1k_dkt_baseline_seed06</text><rect x="160" y="280" width="554.4" height="30" fill="#1f6feb" rx="4" /><text x="722.4" y="300" font-size="13" font-family="Segoe UI">0.7202</text><text x="16" y="346" font-size="14" font-family="Segoe UI">ednet1k_dkt_baseline_seed07</text><rect x="160" y="326" width="556.9" height="30" fill="#1f6feb" rx="4" /><text x="724.9" y="346" font-size="13" font-family="Segoe UI">0.7234</text><text x="16" y="392" font-size="14" font-family="Segoe UI">ednet1k_dkt_baseline_seed08</text><rect x="160" y="372" width="554.0" height="30" fill="#1f6feb" rx="4" /><text x="722.0" y="392" font-size="13" font-family="Segoe UI">0.7197</text><text x="16" y="438" font-size="14" font-family="Segoe UI">ednet1k_dkt_baseline_seed09</text><rect x="160" y="418" width="556.2" height="30" fill="#1f6feb" rx="4" /><text x="724.2" y="438" font-size="13" font-family="Segoe UI">0.7226</text><text x="16" y="484" font-size="14" font-family="Segoe UI">ednet1k_dkt_baseline_seed10</text><rect x="160" y="464" width="556.3" height="30" fill="#1f6feb" rx="4" /><text x="724.3" y="484" font-size="13" font-family="Segoe UI">0.7227</text><text x="16" y="530" font-size="14" font-family="Segoe UI">ednet1k_graph_only_seed01</text><rect x="160" y="510" width="501.7" height="30" fill="#1f6feb" rx="4" /><text x="669.7" y="530" font-size="13" font-family="Segoe UI">0.6518</text><text x="16" y="576" font-size="14" font-family="Segoe UI">ednet1k_graph_only_seed02</text><rect x="160" y="556" width="496.1" height="30" fill="#1f6feb" rx="4" /><text x="664.1" y="576" font-size="13" font-family="Segoe UI">0.6445</text><text x="16" y="622" font-size="14" font-family="Segoe UI">ednet1k_graph_only_seed03</text><rect x="160" y="602" width="499.5" height="30" fill="#1f6feb" rx="4" /><text x="667.5" y="622" font-size="13" font-family="Segoe UI">0.6489</text><text x="16" y="668" font-size="14" font-family="Segoe UI">ednet1k_graph_only_seed04</text><rect x="160" y="648" width="502.1" height="30" fill="#1f6feb" rx="4" /><text x="670.1" y="668" font-size="13" font-family="Segoe UI">0.6523</text><text x="16" y="714" font-size="14" font-family="Segoe UI">ednet1k_graph_only_seed05</text><rect x="160" y="694" width="502.4" height="30" fill="#1f6feb" rx="4" /><text x="670.4" y="714" font-size="13" font-family="Segoe UI">0.6527</text><text x="16" y="760" font-size="14" font-family="Segoe UI">ednet1k_graph_only_seed06</text><rect x="160" y="740" width="502.6" height="30" fill="#1f6feb" rx="4" /><text x="670.6" y="760" font-size="13" font-family="Segoe UI">0.6529</text><text x="16" y="806" font-size="14" font-family="Segoe UI">ednet1k_graph_only_seed07</text><rect x="160" y="786" width="501.5" height="30" fill="#1f6feb" rx="4" /><text x="669.5" y="806" font-size="13" font-family="Segoe UI">0.6515</text><text x="16" y="852" font-size="14" font-family="Segoe UI">ednet1k_graph_only_seed08</text><rect x="160" y="832" width="501.1" height="30" fill="#1f6feb" rx="4" /><text x="669.1" y="852" font-size="13" font-family="Segoe UI">0.6509</text><text x="16" y="898" font-size="14" font-family="Segoe UI">ednet1k_graph_only_seed09</text><rect x="160" y="878" width="502.7" height="30" fill="#1f6feb" rx="4" /><text x="670.7" y="898" font-size="13" font-family="Segoe UI">0.6531</text><text x="16" y="944" font-size="14" font-family="Segoe UI">ednet1k_graph_only_seed10</text><rect x="160" y="924" width="496.1" height="30" fill="#1f6feb" rx="4" /><text x="664.1" y="944" font-size="13" font-family="Segoe UI">0.6445</text><text x="16" y="990" font-size="14" font-family="Segoe UI">ednet1k_sakt_baseline_seed01</text><rect x="160" y="970" width="535.3" height="30" fill="#1f6feb" rx="4" /><text x="703.3" y="990" font-size="13" font-family="Segoe UI">0.6954</text><text x="16" y="1036" font-size="14" font-family="Segoe UI">ednet1k_sakt_baseline_seed02</text><rect x="160" y="1016" width="536.6" height="30" fill="#1f6feb" rx="4" /><text x="704.6" y="1036" font-size="13" font-family="Segoe UI">0.6971</text><text x="16" y="1082" font-size="14" font-family="Segoe UI">ednet1k_sakt_baseline_seed03</text><rect x="160" y="1062" width="533.6" height="30" fill="#1f6feb" rx="4" /><text x="701.6" y="1082" font-size="13" font-family="Segoe UI">0.6933</text><text x="16" y="1128" font-size="14" font-family="Segoe UI">ednet1k_sakt_baseline_seed04</text><rect x="160" y="1108" width="535.2" height="30" fill="#1f6feb" rx="4" /><text x="703.2" y="1128" font-size="13" font-family="Segoe UI">0.6953</text><text x="16" y="1174" font-size="14" font-family="Segoe UI">ednet1k_sakt_baseline_seed05</text><rect x="160" y="1154" width="538.1" height="30" fill="#1f6feb" rx="4" /><text x="706.1" y="1174" font-size="13" font-family="Segoe UI">0.6991</text><text x="16" y="1220" font-size="14" font-family="Segoe UI">ednet1k_sakt_baseline_seed06</text><rect x="160" y="1200" width="534.9" height="30" fill="#1f6feb" rx="4" /><text x="702.9" y="1220" font-size="13" font-family="Segoe UI">0.6949</text><text x="16" y="1266" font-size="14" font-family="Segoe UI">ednet1k_sakt_baseline_seed07</text><rect x="160" y="1246" width="538.5" height="30" fill="#1f6feb" rx="4" /><text x="706.5" y="1266" font-size="13" font-family="Segoe UI">0.6996</text><text x="16" y="1312" font-size="14" font-family="Segoe UI">ednet1k_sakt_baseline_seed08</text><rect x="160" y="1292" width="539.8" height="30" fill="#1f6feb" rx="4" /><text x="707.8" y="1312" font-size="13" font-family="Segoe UI">0.7013</text><text x="16" y="1358" font-size="14" font-family="Segoe UI">ednet1k_sakt_baseline_seed09</text><rect x="160" y="1338" width="533.6" height="30" fill="#1f6feb" rx="4" /><text x="701.6" y="1358" font-size="13" font-family="Segoe UI">0.6932</text><text x="16" y="1404" font-size="14" font-family="Segoe UI">ednet1k_sakt_baseline_seed10</text><rect x="160" y="1384" width="535.3" height="30" fill="#1f6feb" rx="4" /><text x="703.3" y="1404" font-size="13" font-family="Segoe UI">0.6954</text><text x="16" y="1450" font-size="14" font-family="Segoe UI">ednet1k_thgkt_cooccurrence_graph_seed01</text><rect x="160" y="1430" width="559.0" height="30" fill="#1f6feb" rx="4" /><text x="727.0" y="1450" font-size="13" font-family="Segoe UI">0.7263</text><text x="16" y="1496" font-size="14" font-family="Segoe UI">ednet1k_thgkt_cooccurrence_graph_seed02</text><rect x="160" y="1476" width="558.6" height="30" fill="#1f6feb" rx="4" /><text x="726.6" y="1496" font-size="13" font-family="Segoe UI">0.7257</text><text x="16" y="1542" font-size="14" font-family="Segoe UI">ednet1k_thgkt_cooccurrence_graph_seed03</text><rect x="160" y="1522" width="556.4" height="30" fill="#1f6feb" rx="4" /><text x="724.4" y="1542" font-size="13" font-family="Segoe UI">0.7229</text><text x="16" y="1588" font-size="14" font-family="Segoe UI">ednet1k_thgkt_cooccurrence_graph_seed04</text><rect x="160" y="1568" width="558.9" height="30" fill="#1f6feb" rx="4" /><text x="726.9" y="1588" font-size="13" font-family="Segoe UI">0.7261</text><text x="16" y="1634" font-size="14" font-family="Segoe UI">ednet1k_thgkt_cooccurrence_graph_seed05</text><rect x="160" y="1614" width="560.0" height="30" fill="#1f6feb" rx="4" /><text x="728.0" y="1634" font-size="13" font-family="Segoe UI">0.7275</text><text x="16" y="1680" font-size="14" font-family="Segoe UI">ednet1k_thgkt_cooccurrence_graph_seed06</text><rect x="160" y="1660" width="559.6" height="30" fill="#1f6feb" rx="4" /><text x="727.6" y="1680" font-size="13" font-family="Segoe UI">0.7271</text><text x="16" y="1726" font-size="14" font-family="Segoe UI">ednet1k_thgkt_cooccurrence_graph_seed07</text><rect x="160" y="1706" width="554.0" height="30" fill="#1f6feb" rx="4" /><text x="722.0" y="1726" font-size="13" font-family="Segoe UI">0.7198</text><text x="16" y="1772" font-size="14" font-family="Segoe UI">ednet1k_thgkt_cooccurrence_graph_seed08</text><rect x="160" y="1752" width="557.3" height="30" fill="#1f6feb" rx="4" /><text x="725.3" y="1772" font-size="13" font-family="Segoe UI">0.7240</text><text x="16" y="1818" font-size="14" font-family="Segoe UI">ednet1k_thgkt_cooccurrence_graph_seed09</text><rect x="160" y="1798" width="558.1" height="30" fill="#1f6feb" rx="4" /><text x="726.1" y="1818" font-size="13" font-family="Segoe UI">0.7251</text><text x="16" y="1864" font-size="14" font-family="Segoe UI">ednet1k_thgkt_cooccurrence_graph_seed10</text><rect x="160" y="1844" width="558.4" height="30" fill="#1f6feb" rx="4" /><text x="726.4" y="1864" font-size="13" font-family="Segoe UI">0.7254</text><text x="16" y="1910" font-size="14" font-family="Segoe UI">ednet1k_thgkt_full_seed01</text><rect x="160" y="1890" width="559.7" height="30" fill="#1f6feb" rx="4" /><text x="727.7" y="1910" font-size="13" font-family="Segoe UI">0.7271</text><text x="16" y="1956" font-size="14" font-family="Segoe UI">ednet1k_thgkt_full_seed02</text><rect x="160" y="1936" width="555.9" height="30" fill="#1f6feb" rx="4" /><text x="723.9" y="1956" font-size="13" font-family="Segoe UI">0.7222</text><text x="16" y="2002" font-size="14" font-family="Segoe UI">ednet1k_thgkt_full_seed03</text><rect x="160" y="1982" width="555.6" height="30" fill="#1f6feb" rx="4" /><text x="723.6" y="2002" font-size="13" font-family="Segoe UI">0.7218</text><text x="16" y="2048" font-size="14" font-family="Segoe UI">ednet1k_thgkt_full_seed04</text><rect x="160" y="2028" width="556.8" height="30" fill="#1f6feb" rx="4" /><text x="724.8" y="2048" font-size="13" font-family="Segoe UI">0.7233</text><text x="16" y="2094" font-size="14" font-family="Segoe UI">ednet1k_thgkt_full_seed05</text><rect x="160" y="2074" width="556.0" height="30" fill="#1f6feb" rx="4" /><text x="724.0" y="2094" font-size="13" font-family="Segoe UI">0.7223</text><text x="16" y="2140" font-size="14" font-family="Segoe UI">ednet1k_thgkt_full_seed06</text><rect x="160" y="2120" width="558.3" height="30" fill="#1f6feb" rx="4" /><text x="726.3" y="2140" font-size="13" font-family="Segoe UI">0.7253</text><text x="16" y="2186" font-size="14" font-family="Segoe UI">ednet1k_thgkt_full_seed07</text><rect x="160" y="2166" width="555.9" height="30" fill="#1f6feb" rx="4" /><text x="723.9" y="2186" font-size="13" font-family="Segoe UI">0.7222</text><text x="16" y="2232" font-size="14" font-family="Segoe UI">ednet1k_thgkt_full_seed08</text><rect x="160" y="2212" width="557.4" height="30" fill="#1f6feb" rx="4" /><text x="725.4" y="2232" font-size="13" font-family="Segoe UI">0.7242</text><text x="16" y="2278" font-size="14" font-family="Segoe UI">ednet1k_thgkt_full_seed09</text><rect x="160" y="2258" width="555.8" height="30" fill="#1f6feb" rx="4" /><text x="723.8" y="2278" font-size="13" font-family="Segoe UI">0.7221</text><text x="16" y="2324" font-size="14" font-family="Segoe UI">ednet1k_thgkt_full_seed10</text><rect x="160" y="2304" width="559.6" height="30" fill="#1f6feb" rx="4" /><text x="727.6" y="2324" font-size="13" font-family="Segoe UI">0.7270</text><text x="16" y="2370" font-size="14" font-family="Segoe UI">ednet1k_thgkt_no_prereq_seed01</text><rect x="160" y="2350" width="557.3" height="30" fill="#1f6feb" rx="4" /><text x="725.3" y="2370" font-size="13" font-family="Segoe UI">0.7240</text><text x="16" y="2416" font-size="14" font-family="Segoe UI">ednet1k_thgkt_no_prereq_seed02</text><rect x="160" y="2396" width="557.6" height="30" fill="#1f6feb" rx="4" /><text x="725.6" y="2416" font-size="13" font-family="Segoe UI">0.7244</text><text x="16" y="2462" font-size="14" font-family="Segoe UI">ednet1k_thgkt_no_prereq_seed03</text><rect x="160" y="2442" width="557.4" height="30" fill="#1f6feb" rx="4" /><text x="725.4" y="2462" font-size="13" font-family="Segoe UI">0.7241</text><text x="16" y="2508" font-size="14" font-family="Segoe UI">ednet1k_thgkt_no_prereq_seed04</text><rect x="160" y="2488" width="557.4" height="30" fill="#1f6feb" rx="4" /><text x="725.4" y="2508" font-size="13" font-family="Segoe UI">0.7241</text><text x="16" y="2554" font-size="14" font-family="Segoe UI">ednet1k_thgkt_no_prereq_seed05</text><rect x="160" y="2534" width="559.8" height="30" fill="#1f6feb" rx="4" /><text x="727.8" y="2554" font-size="13" font-family="Segoe UI">0.7272</text><text x="16" y="2600" font-size="14" font-family="Segoe UI">ednet1k_thgkt_no_prereq_seed06</text><rect x="160" y="2580" width="556.3" height="30" fill="#1f6feb" rx="4" /><text x="724.3" y="2600" font-size="13" font-family="Segoe UI">0.7228</text><text x="16" y="2646" font-size="14" font-family="Segoe UI">ednet1k_thgkt_no_prereq_seed07</text><rect x="160" y="2626" width="559.1" height="30" fill="#1f6feb" rx="4" /><text x="727.1" y="2646" font-size="13" font-family="Segoe UI">0.7264</text><text x="16" y="2692" font-size="14" font-family="Segoe UI">ednet1k_thgkt_no_prereq_seed08</text><rect x="160" y="2672" width="559.9" height="30" fill="#1f6feb" rx="4" /><text x="727.9" y="2692" font-size="13" font-family="Segoe UI">0.7274</text><text x="16" y="2738" font-size="14" font-family="Segoe UI">ednet1k_thgkt_no_prereq_seed09</text><rect x="160" y="2718" width="558.1" height="30" fill="#1f6feb" rx="4" /><text x="726.1" y="2738" font-size="13" font-family="Segoe UI">0.7251</text><text x="16" y="2784" font-size="14" font-family="Segoe UI">ednet1k_thgkt_no_prereq_seed10</text><rect x="160" y="2764" width="557.1" height="30" fill="#1f6feb" rx="4" /><text x="725.1" y="2784" font-size="13" font-family="Segoe UI">0.7237</text><text x="16" y="2830" font-size="14" font-family="Segoe UI">ednet1k_thgkt_no_temporal_seed01</text><rect x="160" y="2810" width="554.6" height="30" fill="#1f6feb" rx="4" /><text x="722.6" y="2830" font-size="13" font-family="Segoe UI">0.7205</text><text x="16" y="2876" font-size="14" font-family="Segoe UI">ednet1k_thgkt_no_temporal_seed02</text><rect x="160" y="2856" width="556.2" height="30" fill="#1f6feb" rx="4" /><text x="724.2" y="2876" font-size="13" font-family="Segoe UI">0.7225</text><text x="16" y="2922" font-size="14" font-family="Segoe UI">ednet1k_thgkt_no_temporal_seed03</text><rect x="160" y="2902" width="555.3" height="30" fill="#1f6feb" rx="4" /><text x="723.3" y="2922" font-size="13" font-family="Segoe UI">0.7214</text><text x="16" y="2968" font-size="14" font-family="Segoe UI">ednet1k_thgkt_no_temporal_seed04</text><rect x="160" y="2948" width="554.7" height="30" fill="#1f6feb" rx="4" /><text x="722.7" y="2968" font-size="13" font-family="Segoe UI">0.7207</text><text x="16" y="3014" font-size="14" font-family="Segoe UI">ednet1k_thgkt_no_temporal_seed05</text><rect x="160" y="2994" width="552.8" height="30" fill="#1f6feb" rx="4" /><text x="720.8" y="3014" font-size="13" font-family="Segoe UI">0.7181</text><text x="16" y="3060" font-size="14" font-family="Segoe UI">ednet1k_thgkt_no_temporal_seed06</text><rect x="160" y="3040" width="554.5" height="30" fill="#1f6feb" rx="4" /><text x="722.5" y="3060" font-size="13" font-family="Segoe UI">0.7204</text><text x="16" y="3106" font-size="14" font-family="Segoe UI">ednet1k_thgkt_no_temporal_seed07</text><rect x="160" y="3086" width="556.3" height="30" fill="#1f6feb" rx="4" /><text x="724.3" y="3106" font-size="13" font-family="Segoe UI">0.7227</text><text x="16" y="3152" font-size="14" font-family="Segoe UI">ednet1k_thgkt_no_temporal_seed08</text><rect x="160" y="3132" width="555.5" height="30" fill="#1f6feb" rx="4" /><text x="723.5" y="3152" font-size="13" font-family="Segoe UI">0.7216</text><text x="16" y="3198" font-size="14" font-family="Segoe UI">ednet1k_thgkt_no_temporal_seed09</text><rect x="160" y="3178" width="557.3" height="30" fill="#1f6feb" rx="4" /><text x="725.3" y="3198" font-size="13" font-family="Segoe UI">0.7240</text><text x="16" y="3244" font-size="14" font-family="Segoe UI">ednet1k_thgkt_no_temporal_seed10</text><rect x="160" y="3224" width="553.9" height="30" fill="#1f6feb" rx="4" /><text x="721.9" y="3244" font-size="13" font-family="Segoe UI">0.7196</text>
</svg>
