<svg xmlns="http://www.w3.org/2000/svg" width="760" height="420" viewBox="0 0 760 420">
  <rect width="100%" height="100%" fill="#ffffff" />
  <text x="20" y="26" font-size="20" font-family="Segoe UI" font-weight="600">Training Curves</text>
  <line x1="60" y1="40" x2="60" y2="370" stroke="#666" />
  <line x1="60" y1="370" x2="730" y2="370" stroke="#666" />
  <polyline fill="none" stroke="#1f6feb" stroke-width="3" points="60.0,40.0 95.3,143.2 130.5,169.9 165.8,189.4 201.1,204.6 236.3,216.5 271.6,226.4 306.8,234.5 342.1,241.4 377.4,247.4 412.6,252.5 447.9,256.9 483.2,260.6 518.4,263.9 553.7,267.1 588.9,269.8 624.2,271.8 659.5,273.9 694.7,275.6 730.0,277.2" />
  <polyline fill="none" stroke="#d73a49" stroke-width="3" points="60.0,279.7 95.3,300.9 130.5,314.5 165.8,324.3 201.1,332.0 236.3,338.5 271.6,343.2 306.8,346.9 342.1,350.5 377.4,353.6 412.6,355.9 447.9,358.3 483.2,360.2 518.4,361.8 553.7,363.7 588.9,365.2 624.2,366.4 659.5,367.8 694.7,369.0 730.0,370.0" />
  <text x="550" y="36" font-size="13" font-family="Segoe UI" fill="#1f6feb">Train Loss</text>
  <text x="640" y="36" font-size="13" font-family="Segoe UI" fill="#d73a49">Val BCE</text>
</svg>
